<svg width="24" height="24" viewBox="0 0 24 24" fill="none" xmlns="http://www.w3.org/2000/svg">
    <path fill-rule="evenodd" clip-rule="evenodd"
          d="M2.5 6C2.5 5.17157 3.17157 4.5 4 4.5H20C20.8284 4.5 21.5 5.17157 21.5 6C21.5 6.82843 20.8284 7.5 20 7.5H4C3.17157 7.5 2.5 6.82843 2.5 6ZM2.5 12C2.5 11.1716 3.17157 10.5 4 10.5H20C20.8284 10.5 21.5 11.1716 21.5 12C21.5 12.8284 20.8284 13.5 20 13.5H4C3.17157 13.5 2.5 12.8284 2.5 12ZM2.5 18C2.5 17.1716 3.17157 16.5 4 16.5H20C20.8284 16.5 21.5 17.1716 21.5 18C21.5 18.8284 20.8284 19.5 20 19.5H4C3.17157 19.5 2.5 18.8284 2.5 18Z"
          fill="#000000"/>
</svg>
