<?xml version="1.0" encoding="UTF-8" standalone="no"?>
<!-- Created with Inkscape (http://www.inkscape.org/) -->

<svg
   xmlns:dc="http://purl.org/dc/elements/1.1/"
   xmlns:cc="http://creativecommons.org/ns#"
   xmlns:rdf="http://www.w3.org/1999/02/22-rdf-syntax-ns#"
   xmlns:svg="http://www.w3.org/2000/svg"
   xmlns="http://www.w3.org/2000/svg"
   xmlns:sodipodi="http://sodipodi.sourceforge.net/DTD/sodipodi-0.dtd"
   xmlns:inkscape="http://www.inkscape.org/namespaces/inkscape"
   id="svg2985"
   version="1.1"
   inkscape:version="0.48.5 r10040"
   width="2107"
   height="435"
   sodipodi:docname="tatry_ink2.svg"
   inkscape:export-filename="C:\Users\chuchmaczm\Desktop\bitmap3.png"
   inkscape:export-xdpi="90"
   inkscape:export-ydpi="90">
  <metadata
     id="metadata2991">
    <rdf:RDF>
      <cc:Work
         rdf:about="">
        <dc:format>image/svg+xml</dc:format>
        <dc:type
           rdf:resource="http://purl.org/dc/dcmitype/StillImage" />
        <dc:title></dc:title>
      </cc:Work>
    </rdf:RDF>
  </metadata>
  <defs
     id="defs2989">
    <inkscape:path-effect
       effect="spiro"
       id="path-effect3802"
       is_visible="true" />
    <inkscape:path-effect
       effect="spiro"
       id="path-effect3798"
       is_visible="true" />
  </defs>
  <sodipodi:namedview
     pagecolor="#ffffff"
     bordercolor="#666666"
     borderopacity="1"
     objecttolerance="10"
     gridtolerance="10"
     guidetolerance="10"
     inkscape:pageopacity="0"
     inkscape:pageshadow="2"
     inkscape:window-width="2560"
     inkscape:window-height="1377"
     id="namedview2987"
     showgrid="false"
     inkscape:zoom="0.56953015"
     inkscape:cx="1222.0702"
     inkscape:cy="858.86479"
     inkscape:window-x="-8"
     inkscape:window-y="-8"
     inkscape:window-maximized="1"
     inkscape:current-layer="svg2985" />
  <path
     style="fill:#303c46;fill-opacity:1;stroke:none"
     d="m 1070.568,72.71875 c -0.8783,0 -1.3131,1.09375 -1.3131,1.09375 l -1.2192,1.09375 -2.845,1.65625 -1.5318,-0.21875 -2.0947,0.4375 c 0,0 -3.4061,1.95276 -3.8454,2.0625 -0.4391,0.10974 -1.9672,3.295053 -2.6261,3.84375 -0.6586,0.548698 -8.3471,8.6875 -8.3471,8.6875 0,0 -2.5273,3.715833 -4.0642,4.59375 -1.5371,0.877917 -1.5319,-1.09375 -1.5319,-1.09375 0,0 -1.4366,-0.75 -1.8757,-0.75 -0.4391,0 -1.7487,0.655521 -2.4073,0.875 -0.6588,0.219479 -1.7494,1.295052 -2.1885,1.84375 -0.4391,0.548698 -2.53,2.654792 -3.1888,3.09375 -0.6587,0.43895 -1.8714,0.54651 -3.1888,0.65625 -1.3175,0.10974 -1.6541,-0.32849 -2.5323,-0.21875 -0.8782,0.10974 -2.1885,1.09375 -2.1885,1.09375 0,0 -1.8736,0.76381 -2.5322,1.3125 -0.6588,0.5487 -3.0623,0.78052 -3.5015,1 -0.4392,0.21948 -3.7326,1.41932 -4.7208,2.1875 -0.9881,0.76818 -3.5326,0.75 -3.5326,0.75 l -6.1276,0.125 -3.75155,0.4375 -2.93873,-0.875 -1.87578,-1.3125 c 0,0 -2.40575,-1.10828 -2.84493,-1.4375 -0.43914,-0.32922 -2.43634,-0.001 -3.09504,0.4375 -0.65872,0.43896 -1.62568,2.625 -1.62568,2.625 0,0 -4.49968,1.89099 -5.1584,1.78125 -0.65871,-0.10974 -5.4085,0.0937 -5.4085,0.0937 l -5.25219,0.34375 c 0,0 -3.62359,0.10901 -4.50188,0.21875 -0.87828,0.10974 -2.18476,-0.125 -3.28261,-0.125 -1.09785,0 -1.87579,-0.96875 -1.87579,-0.96875 l -3.06377,-2.09375 -3.84535,-1.2187 c 0,0 -1.56096,0.4375 -2.21968,0.4375 -0.6587,0 -3.18592,-0.875 -4.06419,-0.875 -0.87829,0 -2.93873,-0.4375 -2.93873,-0.4375 l -2.5323,0 -1.75073,-1.09375 -1.4381,-0.65625 c 0,0 -1.63948,-0.125 -2.18841,-0.125 -0.54893,0 -1.65694,-0.96875 -1.65694,-0.96875 0,0 -1.43664,-0.87427 -1.87578,-1.09375 -0.43915,-0.219479 -1.84233,-1.327031 -2.50104,-1.65625 -0.65872,-0.329218 -1.75073,-1.21875 -1.75073,-1.21875 0,0 -2.96634,-2.952761 -4.0642,-3.0625 -1.09784,-0.10974 -2.00083,-0.78125 -2.00083,-0.78125 0,0 -2.0619,0.10901 -2.50104,0.21875 -0.43915,0.109739 -2.21968,0.25 -2.21968,0.25 l -1.96957,0.4375 c 0,0 -3.18737,-0.4375 -3.62651,-0.4375 -0.43914,0 -1.75073,-1.875 -1.75073,-1.875 l -2.18841,-1.96875 -1.21926,0.21875 -2.5323,0.09375 c 0,0 -2.17096,-1.311771 -2.71989,-1.53125 -0.54892,-0.219479 -1.21779,-0.4375 -1.65694,-0.4375 -0.43914,0 -1.31304,1 -1.31304,1 l -1.75073,2.1875 -2.21968,1.75 -1.84452,2.3125 -1.65694,1.625 c 0,0 -0.99896,1.342292 -1.43809,1.78125 -0.43915,0.438959 -2.1855,1.093025 -3.06378,1.3125 -0.87829,0.21948 -1.43446,-0.4375 -2.53231,-0.4375 -1.09785,0 -2.74822,-0.99927 -3.62651,-1.21875 -0.87828,-0.219479 -1.7478,-0.09448 -2.62609,0.125 -0.87829,0.219479 -3.06378,-1 -3.06378,-1 0,0 -1.76234,-0.780521 -2.96998,-1 -1.20764,-0.21948 -1.63949,-0.85901 -2.18842,-0.96875 -0.54892,-0.109739 -1.4381,0.4375 -1.4381,0.4375 l -1.21925,1.53125 c 0,0 -1.6373,0.3125 -2.84494,0.3125 -1.20763,0 -2.0917,-0.984011 -2.96999,-1.09375 C 861.63429,96.73401 860.66805,96.75 860.66805,96.75 l -4.18925,-0.5625 c 0,0 -1.41992,-0.3125 -2.18841,-0.3125 -0.7685,0 -2.31346,0.09375 -2.31346,0.09375 l -1.75073,0.875 c 0,0 -0.99897,1.452031 -1.4381,1.78125 -0.43915,0.329219 -1.53189,1.53125 -1.53189,1.53125 l -2.84494,1.09375 -1.21925,0.96875 -1.62568,1.78125 -2.00084,2.1875 c 0,0 -1.29632,1.2173 -1.62567,1.65625 -0.32936,0.43896 -1.98339,1.18677 -2.53231,1.40625 -0.54893,0.21948 -2.5323,-0.21875 -2.5323,-0.21875 0,0 -2.51485,0.23474 -3.06378,0.125 -0.54893,-0.10974 -2.5323,-0.125 -2.5323,-0.125 l -1.96957,-0.65625 c 0,0 -1.20107,-0.34157 -1.96957,-1 -0.76849,-0.65844 -1.67075,-0.63953 -2.21968,-0.96875 -0.54893,-0.32922 -1.53189,-1.09375 -1.53189,-1.09375 L 817.40002,104 l -1.31305,-1.34375 -2.09462,-1.3125 -2.31346,-1.96875 c 0,0 -2.71916,-1.654792 -2.93873,-2.09375 -0.21957,-0.438958 -2.00083,-1.1875 -2.00083,-1.1875 0,0 -1.5297,-0.436771 -2.18841,-0.65625 -0.65871,-0.219479 -1.65475,-0.65552 -2.31347,-0.875 -0.6587,-0.219479 -1.74926,-0.545781 -2.18841,-0.875 -0.43914,-0.329219 -2.85801,0.32849 -3.62651,0.21875 -0.76849,-0.10974 -1.62568,0.75 -1.62568,0.75 0,0 -2.312,0.10974 -2.75114,0 -0.43914,-0.10974 -1.76381,0.43677 -2.53231,0.65625 -0.7685,0.219479 -2.18549,0.56177 -3.06377,0.78125 -0.87828,0.219479 -2.10552,0.434583 -3.53272,1.3125 -1.42722,0.877916 -2.40726,0.4375 -2.40726,0.4375 l -1.75073,1.75 c -0.43914,0.43895 -1.87578,1.21875 -1.87578,1.21875 l -1.53189,1.40625 -2.75114,2.4375 -1.84452,1.96875 -1.65694,1.875 -2.09462,0.4375 -1.53189,0.0937 -2.75115,-1.1875 -2.40725,-1.34375 -0.34389,0.5625 -0.75032,1.4375 -1.31304,0.3125 c 0,0 -0.7794,-0.20203 -1.4381,-0.53125 -0.65872,-0.32922 -1.09421,-1.21875 -1.09421,-1.21875 l -1.53189,-1.4375 -2.09462,-1.09375 -0.75031,0.78125 -1.78199,1.53125 -1.31305,-1.4375 c 0,0 -0.74958,-1.31104 -0.96916,-1.75 -0.21957,-0.43896 -1.00041,-1.75 -1.00041,-1.75 l -0.21884,-1.0937 -1.09421,-1.3125 -2.31346,-2.65625 -1.4381,-0.65625 c 0,0 -2.28075,-0.436771 -2.71989,-0.65625 -0.43914,-0.219479 -2.21967,-0.3125 -2.21967,-0.3125 0,0 -1.53043,0.639531 -1.96957,0.96875 -0.43914,0.329219 -2.53231,1.09375 -2.53231,1.09375 0,0 -1.42064,1.888802 -1.96957,2.4375 -0.54892,0.54869 -2.96998,1.09375 -2.96998,1.09375 l -2.2822,0.96875 -1.87579,-1.96875 c 0,0 -1.2018,-0.220934 -1.75072,0.4375 -0.54893,0.65844 -2.1077,1.63953 -2.8762,1.96875 -0.76849,0.32921 -2.2822,1.875 -2.2822,1.875 l -2.43852,-0.53125 -1.53189,-0.6875 c 0,0 -2.85947,-2.18604 -3.18883,-2.625 -0.32935,-0.438955 -1.40683,-0.875 -1.40683,-0.875 l -1.53189,-1.65625 c 0,0 -1.56169,-1.076302 -2.00083,-1.625 -0.43915,-0.548698 -1.75073,-1.21875 -1.75073,-1.21875 l -2.18842,-1.53125 -2.09462,-2.3125 -1.96957,-2.0625 -2.09462,-1.5625 -3.50146,-1.75 -2.62609,-1.96875 -1.21926,-1.4375 c 0,0 -2.62465,0.01599 -3.06378,-0.09375 -0.43914,-0.10974 -1.87432,1.311771 -2.31346,1.53125 -0.43913,0.219479 -2.85874,0.09448 -3.40767,-0.125 -0.54893,-0.219479 -1.8736,7.29e-4 -2.53231,-0.21875 -0.65871,-0.219479 -0.96769,-0.749271 -1.40683,-0.96875 -0.43915,-0.219479 -1.53189,-1.53125 -1.53189,-1.53125 l -3.18883,-0.5625 c 0,0 -2.20149,-0.530521 -2.96999,-0.75 -0.7685,-0.21948 -1.85759,0.09375 -2.62609,0.09375 -0.7685,0 -1.76454,0.343021 -2.31346,0.5625 -0.54893,0.219479 -2.18696,1.077031 -2.6261,1.40625 -0.43914,0.329218 -2.53084,1.09302 -2.96999,1.3125 -0.43914,0.219479 -2.76495,1.327032 -3.31388,1.65625 -0.54891,0.329219 -1.40683,1.09375 -1.40683,1.09375 0,0 -2.09316,0.545781 -2.53231,0.875 -0.43914,0.329219 -2.18476,1.090834 -3.28261,1.96875 -1.09785,0.877917 -2.32654,0.561771 -3.09504,0.78125 -0.76849,0.21948 -2.07717,0.452761 -2.6261,0.5625 -0.54892,0.10974 -1.43299,0.435313 -2.96999,1.09375 -1.53699,0.658438 -2.5323,0.75 -2.5323,0.75 0,0 -1.84306,0.983282 -2.2822,1.3125 -0.43914,0.329219 -2.09462,0.78125 -2.09462,0.78125 0,0 -1.54497,0.561041 -2.31347,1 -0.7685,0.438958 -2.0619,0.32776 -2.50104,0.4375 -0.43914,0.10974 -3.40767,1.09375 -3.40767,1.09375 0,0 -2.74968,-0.125 -3.18883,-0.125 -0.43913,0 -1.65694,-1.53125 -1.65694,-1.53125 0,0 -1.21707,-0.751458 -1.87578,-0.3125 -0.65871,0.438959 -1.74855,0.21802 -2.40725,0.4375 -0.65872,0.219479 -4.00167,1.59375 -4.00167,1.59375 l -4.18924,2.15625 c 0,0 -2.66264,1.72297 -3.43894,2.34375 -0.7763,0.62078 -1.6882,2 -1.6882,2 l -5.12714,3.125 -2.65735,-1.71875 -3.7203,-2.03125 -3.7203,-2.625 -2.00084,-1.875 -1.87578,-2.46875 -3.7203,-1.875 -3.43893,-1.53125 -3.09504,-0.3125 -3.56398,-0.46875 -3.09504,-2.03125 -3.90788,-2.46875 -3.25136,-2.03125 -3.09504,-1.6875 -3.87661,0 -2.34473,0.3125 -2.93872,2.625 -2.96999,2.46875 -2.78241,2.34375 c 0,0 -3.09926,1.40625 -3.7203,1.40625 -0.62104,0 -2.65736,2.3125 -2.65736,2.3125 l -2.62609,2.03125 -2.31346,0 -2.34473,-1.25 -2.46978,-0.46875 -1.71947,1.71875 -2.18841,1.21875 -1.21926,1.875 -2.50104,1.5625 -1.21925,-2.5 -2.0321,-2.46875 -2.50104,-2.03125 -2.00084,-0.625 -1.87578,1.09375 -2.00083,1.875 -2.96999,1.0625 -2.46978,1.5625 -2.50104,-1.25 -2.31346,-2.46875 -3.40767,-2.65625 -2.65736,-1.375 c 0,0 -2.474,-0.155195 -3.09504,0 -0.62104,0.155195 -2.62609,0.78125 -2.62609,0.78125 l -3.12631,1.84375 -3.25135,2.34375 -4.81451,-1.09375 -3.25135,0.78125 -2.81367,3.09375 -3.56399,2.9375 -3.87661,3.59375 -4.50188,4.5 -4.97082,4.8125 -4.50187,2.78125 -5.7524,0.46875 -2.15715,1.5625 c 0,0 -2.81789,3.56461 -3.43893,3.875 -0.62105,0.31039 -2.6261,0.9375 -2.6261,0.9375 l -4.34556,2.3125 -3.40767,4.96875 c 0,0 -2.66158,2.31355 -3.28261,2.46875 -0.62104,0.15519 -3.56399,0.46875 -3.56399,0.46875 0,0 -5.13135,0.15625 -5.7524,0.15625 -0.62103,0 -4.18924,-0.15625 -4.18924,-0.15625 l -2.46978,-0.90625 -2.18841,-1.09375 -4.97082,0 -4.81451,-0.78125 -3.87661,-2.1875 -3.40767,-2 -3.25136,-2.03125 -4.50187,-0.3125 -2.96999,-2.15625 -3.40767,-0.625 -5.43977,-1.40625 -3.87661,0.625 -3.7203,1.25 -3.09504,1.84375 -3.28262,2.8125 -2.78241,2.46875 -3.25135,3.28125 -3.75156,3.09375 -3.7203,2.15625 -5.56482,2.03125 -4.97082,1.875 -4.65819,3.40625 -6.53398,2.46875 -4.8145,1.09375 -3.56399,0 -3.25135,0 -5.90871,1.5625 -4.34556,-0.3125 -2.81367,0.9375 -3.25136,0.59375 -3.25135,2.03125 -3.7203,1.09375 -2.81368,1.6875 -3.25135,0.46875 -4.18925,1.09375 -4.18924,-0.3125 -2.18841,1.09375 -4.34556,0.3125 -2.31347,1.25 -4.50187,0.75 -4.65819,0.9375 -2.34473,0.9375 -2.93872,0 -1.09421,-0.9375 -2.31346,-1.6875 -2.81368,-2.03125 -1.84451,-0.625 -6.37766,-0.78125 -0.78158,-1.21875 -0.15631,-2.1875 -1.6882,-2.3125 -1.25053,0 -2.65735,1.53125 -4.18925,0.9375 -4.97082,-0.625 -3.25135,-2 -3.09504,-0.3125 -2.96999,-1.5625 -5.56482,-2.625 c 0,0 -4.03714,-2.65625 -4.65819,-2.65625 -0.62104,0 -6.06503,-3.40625 -6.06503,-3.40625 l -2.7824,-1.25 -5.28346,-0.46875 -2.03209,-0.46875 -2.93873,-1.0625 -3.28261,-2.34375 -3.09504,-1.5625 -3.87662,-3.5625 -1.71946,-0.78125 -3.25136,-0.46875 -2.62609,-1.21875 -1.71947,-1.40625 -2.93872,-1.09375 -4.03293,0.46875 -1.87579,0.625 -3.56398,0.78125 -0.78158,0.625 -2.93872,1.84375 -2.0321,1.875 -2.93872,2.46875 -3.59525,2.1875 -5.72113,2.3125 -3.75156,1.71875 -5.09588,1.71875 -7.62818,3.5625 -3.09504,2.46875 -2.032092,-1.0625 -2.626094,-4.8125 -1.406836,0 -1.531888,0 -1.406836,0.90625 -1.094206,0.46875 -2.782409,1.5625 -2.344727,0 -4.03293,0.3125 -2.157149,0.78125 -3.282617,0.46875 -2.469779,0.15625 -1.719466,-0.46875 -2.469779,-1.25 -2.032097,-0.15625 -6.065026,1.5625 -3.876615,0.3125 -3.251355,1.0625 -4.814506,1.09375 -4.970821,1.5625 -4.501875,3.09375 -1.719466,-0.46875 -3.251355,-2.15625 -4.65819,-0.9375 -2.157149,0.78125 -11.192163,0.3125 -3.563984,1.0625 -0.395374,0.23896 0.574308,-0.2489 -13.08253229,5.1708 -0.28939836,101.77664 2107.34666665,0 0,-93.875 -0.8754,0 c -0.461,-0.63781 -2.2076,-3.09072 -2.5947,-3.1875 -0.4393,-0.10974 -6.1589,-3.84375 -6.1589,-3.84375 l -3.2827,-0.96875 -3.6265,-1.4375 -3.0637,-2.53125 c 0,0 -2.3113,-2.40552 -2.97,-2.625 -0.6588,-0.21948 -1.529,-1.63807 -2.4072,-2.40625 -0.8783,-0.76818 -2.5324,-1.09375 -2.5324,-1.09375 l -3.6265,-2.75 -1.2192,-0.875 -2.5323,-3.0625 -5.2522,-3.1875 -3.1889,-2.53125 -4.0641,-2.96875 c 0,0 -4.0605,-0.89026 -5.1585,-1 -1.0979,-0.10974 -1.8721,-0.10901 -2.9699,-0.21875 -1.0979,-0.10974 -2.97,-1.1875 -2.97,-1.1875 0,0 -3.8425,-1.43677 -4.7207,-1.65625 -0.8783,-0.21948 -3.3895,-1.31177 -4.158,-1.53125 -0.7685,-0.21948 -3.8279,-1.54651 -4.3768,-1.65625 -0.549,-0.10974 -3.6265,-0.53125 -3.6265,-0.53125 0,0 -3.5139,-0.0153 -4.5019,-0.125 -0.988,-0.10974 -3.4048,-0.11047 -4.2831,0.21875 -0.8782,0.32922 -3.9703,0.65625 -3.9703,0.65625 l -2.9701,0.78125 -1.5318,0.875 -3.2827,1.3125 -2.8448,-0.4375 c 0,0 -3.1853,-1.09302 -4.2831,-1.3125 -1.0979,-0.21947 -2.5447,-1.21802 -3.5328,-1.4375 -0.988,-0.21948 -3.9375,-1.40625 -4.3768,-1.40625 -0.4391,0 -4.9395,-1.875 -4.9395,-1.875 l -2.97,-0.875 -4.1579,-0.34375 c 0,0 -5.5132,-7.3e-4 -6.9405,0.21875 -1.4272,0.21948 -3.5138,-0.093 -4.5019,-0.3125 -0.988,-0.21948 -1.8394,0.10828 -3.3764,0.4375 -1.5369,0.32921 -1.654,0.42151 -2.5323,0.53125 -0.8782,0.10974 -2.421,1 -2.97,1 -0.5489,0 -2.7599,-0.32995 -4.8457,0.21875 -2.086,0.5487 -2.9628,0.21729 -5.1585,0.65625 -2.1956,0.43895 -1.5107,0.65406 -3.1575,1.3125 -1.6468,0.65844 -2.6545,0.23401 -3.5327,0.34375 -0.8782,0.10974 -1.4215,0.87282 -1.7507,1.53125 -0.3293,0.65844 -3.6265,0.5625 -3.6265,0.5625 l -2.0947,0.53125 -3.1575,-0.53125 c 0,0 -2.3114,-1.65479 -2.97,-2.09375 -0.6587,-0.43896 -2.5447,-1.98182 -3.5327,-2.75 -0.9881,-0.76818 -1.2011,-0.98183 -1.9696,-1.75 -0.7684,-0.76818 -2.421,-1.21729 -2.9701,-1.65625 -0.5489,-0.43895 -2.3897,-1.65552 -2.9386,-1.875 -0.549,-0.21948 -3.4077,-1.96875 -3.4077,-1.96875 l -2.3135,-0.53125 c 0,0 -1.5442,-0.65334 -2.5322,-1.53125 -0.988,-0.87792 -1.7508,-1.34375 -1.7508,-1.34375 l -8.0033,-5.25 -2.4386,-1.53125 c 0,0 -3.7334,-2.42078 -4.5019,-2.75 -0.7684,-0.32922 -4.3768,-2.96875 -4.3768,-2.96875 0,0 -2.421,-1.327031 -2.9699,-1.65625 -0.549,-0.329219 -1.5436,-0.856823 -2.7512,-1.625 -1.2077,-0.768177 -2.091,-1.436041 -3.1888,-1.875 -1.0979,-0.438958 -1.857,-0.779792 -2.845,-1.21875 -0.988,-0.438959 -2.4028,-0.874271 -3.7203,-1.09375 -1.3173,-0.219479 -1.0913,0.123542 -1.9695,0.5625 -0.8782,0.438958 -1.3392,1.979635 -2.8762,3.40625 -1.537,1.426615 -1.0767,1.184583 -1.6256,2.0625 -0.5491,0.877917 -1.2303,0.78125 -2.6575,0.78125 -1.4273,0 -1.4169,0.54724 -3.0637,0.4375 -1.6467,-0.109739 -2.621,0.23474 -4.158,0.125 -1.537,-0.10974 -0.8878,0.747817 -1.8757,1.40625 -0.9882,0.65844 -1.5291,1.20349 -2.4073,1.09375 -0.8783,-0.10974 -2.6552,-0.20276 -3.3139,-0.3125 -0.6587,-0.10974 -1.5319,0.0937 -1.5319,0.0937 l -3.8454,0.34375 -0.9692,0.3125 -1.0004,1.3125 c -0.3294,0.43896 -1.0918,0.88953 -1.7507,1.21875 -0.6587,0.32922 -0.9829,1.2013 -1.5319,1.75 -0.5489,0.5487 -1.1079,0.99781 -1.6568,1.65625 -0.5491,0.65843 -1.311,1.3263 -1.9697,1.875 -0.6587,0.5487 -1.433,1.19911 -2.97,2.40625 -1.5369,1.20713 -1.4183,0.87428 -2.6261,1.09375 -1.2076,0.21948 -1.0105,0.12572 -2.6573,-0.0937 -1.6468,-0.21948 -0.9692,0.96875 -0.9692,0.96875 0,0 -1.4366,0.88953 -1.8758,1.21875 -0.4391,0.32922 -2.4072,1.09375 -2.4072,1.09375 0,0 -1.8896,0.875 -2.4385,0.875 -0.5489,0 -1.8583,-0.10828 -2.4073,-0.4375 -0.5489,-0.32922 -1.3115,-0.78052 -1.7507,-1 -0.4391,-0.21947 -2.0946,0.21875 -2.0946,0.21875 l -3.8453,-1.1875 c 0,0 -1.5306,-1.09229 -1.9696,-1.53125 -0.4392,-0.43895 -1.6541,-0.90406 -2.5323,-1.5625 -0.8785,-0.65844 -0.4378,-0.96875 -0.4378,-0.96875 l -1.5318,-0.4375 -2.7512,0 -1.7507,0 c 0,0 -2.187,-0.4375 -2.6261,-0.4375 -0.4392,0 -1.8758,-0.125 -1.8758,-0.125 l -2.501,-1.09375 c 0,0 -1.4512,-0.54506 -2.2197,-1.09375 -0.7685,-0.5487 -1.2956,-0.87281 -1.8445,-1.53125 -0.5489,-0.65844 -0.3424,-0.32558 -0.7816,-1.09375 -0.4392,-0.76818 -0.6528,-0.77906 -1.7508,-1.4375 -1.0978,-0.65844 -1.8728,-0.67151 -2.7511,-0.78125 -0.8783,-0.10974 -0.3388,0.23328 -1.8758,0.5625 -1.5369,0.32922 -0.6558,0.77979 -0.8753,1.21875 -0.2194,0.43896 -0.6536,0.74854 -1.5319,1.1875 -0.8783,0.43896 -1.1072,0.4375 -1.8758,0.4375 -0.7685,0 -2.501,0.21875 -2.501,0.21875 0,0 -0.663,0.44912 -3.4076,1.65625 -2.7447,1.20714 -1.8896,0.65552 -2.4386,0.875 -0.549,0.21948 -2.0589,1.43532 -3.3765,2.09375 -1.3174,0.65844 -1.5449,0.6388 -2.3133,1.1875 -0.7685,0.5487 -2.1862,0.5625 -2.845,0.5625 -0.6587,0 -1.3247,0.125 -2.5323,0.125 -1.2076,0 -1.8721,0.20349 -2.97,0.0937 -1.0978,-0.10974 -1.8583,-0.23401 -2.4072,-0.34375 -0.549,-0.10974 -1.5428,-0.31104 -2.97,-0.75 -1.4272,-0.43896 -1.8729,-0.54578 -2.7512,-0.875 -0.8782,-0.32922 -1.7492,-0.78052 -2.1884,-1 -0.4391,-0.21948 -1.9674,-0.54578 -2.6261,-0.875 -0.6588,-0.32922 -1.8896,-0.64026 -2.4385,-0.75 -0.5489,-0.10974 -1.7507,-0.90625 -1.7507,-0.90625 l -1.6569,-0.65625 -3.1576,-1.09375 c 0,0 -1.6555,-0.3125 -2.0946,-0.3125 -0.4393,0 -2.0947,-0.65625 -2.0947,-0.65625 l -3.2825,-0.78125 c 0,0 -1.5276,0.45276 -2.845,0.5625 -1.3175,0.10974 -1.8744,0.43677 -2.3135,0.65625 -0.4392,0.21947 -1.8583,1.09302 -2.4073,1.3125 -0.5489,0.21948 -2.8739,-0.21802 -3.5327,-0.4375 -0.6586,-0.21948 -1.9804,-0.56177 -3.4076,-0.78125 -1.4273,-0.21947 -2.0611,0.23546 -2.7199,-0.0937 -0.6587,-0.32922 -1.6569,-1.21875 -1.6569,-1.21875 l -2.4073,-1.96875 c 0,0 -2.3251,-0.43677 -3.5328,-0.65625 -1.2077,-0.21948 -1.6554,0.4375 -2.0946,0.4375 -0.439,0 -2.6246,0.54724 -3.0637,0.4375 -0.4391,-0.10974 -2.4072,-1.21875 -2.4072,-1.21875 0,0 -0.3222,1.09084 -2.1886,1.96875 -1.8662,0.87792 -1.6524,0.32849 -2.9699,0.21875 -1.3174,-0.10974 -1.2148,-0.74781 -2.5323,-1.40625 -1.3174,-0.65844 -1.9834,-0.125 -2.5323,-0.125 -0.5489,0 -2.845,-0.21875 -2.845,-0.21875 l -2.5322,-1.1875 -3.1889,-0.875 c 0,0 -2.1709,-1.125 -2.7198,-1.125 -0.5489,0 -1.6701,0.67151 -2.4386,0.78125 -0.7684,0.109739 -1.6206,0.779792 -3.1575,1.21875 -1.5371,0.43896 -1.1058,0.42005 -2.3135,0.96875 -1.2076,0.5487 -1.4352,0.21948 -2.3135,0 -0.8782,-0.21948 -1.7478,-0.85756 -2.6261,-1.40625 -0.8783,-0.548698 -1.6568,-1.4375 -1.6568,-1.4375 0,0 -2.2016,-1.54651 -2.9701,-1.65625 -0.7685,-0.109739 -1.8577,0.779791 -2.6261,1.21875 -0.7685,0.438958 -1.5449,0.09448 -2.3134,-0.125 -0.7686,-0.219479 -2.1863,-0.982552 -2.8449,-1.53125 -0.6588,-0.548698 -3.1846,-2.076302 -4.5019,-2.625 -1.3175,-0.548698 -2.7337,-0.344479 -3.2827,-0.125 -0.5489,0.21948 -3.1874,0.452031 -3.6265,0.78125 -0.4392,0.329218 -0.6682,1.857552 -1.8758,2.40625 -1.2076,0.548698 -3.1706,2.966567 -3.9391,3.625 -0.7685,0.65844 -2.4385,1.65625 -2.4385,1.65625 0,0 -2.749,0.85901 -3.4077,0.96875 -0.6588,0.10974 -6.3573,2.54651 -7.7845,2.65625 -1.4272,0.10974 -3.295,0.10974 -4.283,0 -0.9881,-0.10974 -3.5152,-0.21875 -4.0643,-0.21875 -0.5489,0 -4.1556,0.3125 -4.8144,0.3125 -0.6587,0 -2.0866,-0.0937 -4.5018,-0.0937 -2.4153,0 -2.6386,0.31104 -3.6265,0.75 -0.9883,0.43896 -1.311,0.87282 -1.9697,1.53125 -0.6587,0.65844 -1.8713,1.34083 -3.1888,2.21875 -1.3173,0.87791 -1.6519,0.10901 -3.1888,0.21875 -1.5371,0.10974 -1.5457,-0.0153 -2.0947,-0.125 -0.5489,-0.10974 -2.0633,-1.3125 -2.0633,-1.3125 0,0 -0.7794,0.55958 -1.4382,1.4375 -0.6587,0.87791 -2.6224,1.09156 -3.7202,1.75 -1.0979,0.65844 -1.5435,0.0937 -2.7512,0.0937 -1.2076,0 -3.6265,-2.9375 -3.6265,-2.9375 0,0 -1.5303,-1.77979 -1.9695,-2.21875 -0.4392,-0.43896 -3.9704,-2.625 -3.9704,-2.625 l -1.6257,-0.53125 -2.8762,-2.21875 c 0,0 -5.266,-1.18605 -5.8149,-1.625 -0.549,-0.438958 -2.6261,-1.21875 -2.6261,-1.21875 0,0 -2.7643,0.874271 -3.5328,1.09375 -0.7684,0.219479 -2.5134,-0.311041 -3.5015,-0.75 -0.9881,-0.438958 -1.7507,-2.21875 -1.7507,-2.21875 0,0 -2.5432,-0.876458 -3.9703,-0.4375 -1.4272,0.438959 -1.8445,1.4375 -1.8445,1.4375 l -3.8454,3.1875 c 0,0 -0.98,0.3263 -2.4072,0.875 -1.4272,0.5487 -1.9811,0.32704 -3.1889,0.65625 -1.2075,0.32922 -2.216,-0.0145 -3.3138,-0.34375 -1.098,-0.32922 -1.6359,-0.21802 -3.2827,-0.4375 -1.6468,-0.21948 -1.6554,0.12427 -2.0946,0.34375 -0.4392,0.21948 -1.1852,0.88807 -2.0634,1.65625 -0.8784,0.76818 -1.0134,0.65625 -1.782,0.65625 -0.7684,0 -2.1884,-1.78125 -2.1884,-1.78125 0,0 -0.7764,0.21802 -2.3134,0.4375 -1.537,0.21948 -1.4032,0.90479 -2.5011,1.34375 -1.0978,0.43896 -1.8736,0.21802 -2.5322,0.4375 -0.6588,0.21948 -2.5324,2.28125 -2.5324,2.28125 0,0 -1.2164,3.08938 -2.0946,4.40625 -0.8782,1.31688 -0.983,1.52687 -1.5319,2.84375 -0.5489,1.31687 -0.871,1.19839 -2.1884,2.625 -1.3175,1.42661 -0.2334,1.12282 -0.5628,1.78125 -0.3293,0.65844 -1.6241,0.10974 -2.0633,0 -0.4391,-0.10974 -2.2182,-1.21802 -2.6573,-1.4375 -0.4393,-0.21948 -2.1885,-0.65625 -2.1885,-0.65625 l -1.5319,0.875 -2.845,1.53125 c 0,0 -1.4205,1.20203 -1.9695,1.53125 -0.5489,0.32921 -2.4385,0.65625 -2.4385,0.65625 l -1.9696,0.21875 -1.8758,-0.0937 -2.1883,-0.78125 c 0,0 -1.8584,-0.85901 -2.4073,-0.96875 -0.5489,-0.10974 -0.8754,-1.3125 -0.8754,-1.3125 l -2.7511,-1.34375 -2.7512,-0.53125 c 0,0 -2.2007,-0.43605 -3.1888,-0.875 -0.988,-0.43896 -0.6565,-1.53125 -0.6565,-1.53125 l -2.9388,-1.21875 c 0,0 -1.5462,-0.87354 -1.8758,-1.3125 -0.3292,-0.43901 -1.5318,-1.0938 -1.5318,-1.0938 l -2.2197,-1.21875 -2.1883,-1.09375 c 0,0 -3.4063,-1.21729 -3.8454,-1.65625 -0.4391,-0.43896 -1.9827,-0.65552 -2.7512,-0.875 -0.7684,-0.21948 -2.0749,-0.52906 -3.2826,-1.1875 -1.2077,-0.65844 -1.3108,-0.76453 -1.9696,-1.09375 -0.6587,-0.32922 -2.5308,-0.10974 -2.97,0 -0.4392,0.10974 -2.1883,-1 -2.1883,-1 0,0 -0.4341,-0.54359 -1.532,-1.53125 -1.0978,-0.987654 -1.8744,-1.092291 -2.3134,-1.53125 -0.4392,-0.438958 -3.1889,-0.78125 -3.1889,-0.78125 0,0 -3.4048,-0.436771 -4.283,-0.65625 -0.8783,-0.219479 -2.1848,-0.780521 -3.2826,-1 -1.0979,-0.21948 -3.1888,-0.65625 -3.1888,-0.65625 0,0 -0.5591,0.232552 -1.657,0.78125 -1.0979,0.548698 -0.9837,0.982552 -1.313,1.53125 -0.3294,0.548698 -0.5453,0.888802 -1.0942,1.4375 -0.549,0.54869 -1.1966,0.74708 -3.2826,1.625 -2.0859,0.87792 -2.4386,0.5625 -2.4386,0.5625 0,0 -1.6221,0.54505 -2.7199,1.09375 -1.0978,0.5487 -1.4519,0.67078 -2.0008,1 -0.5489,0.32922 -1.2948,0.21729 -2.0633,0.65625 -0.7686,0.43895 -1.9697,1.1875 -1.9697,1.1875 l -1.1254,1.4375 -1.6257,1.75 c 0,0 -1.779,1.31177 -2.6573,1.53125 -0.8783,0.21948 -0.7459,-0.0923 -2.0634,-0.53125 -1.3174,-0.43896 -1.9826,-0.43677 -2.7511,-0.65625 -0.7685,-0.21948 -2.6261,-0.34375 -2.6261,-0.34375 0,0 -3.0754,0.45203 -4.2831,0.78125 -1.2075,0.32922 -1.5449,0.20276 -2.3134,0.3125 -0.7685,0.10973 -2.845,-0.3125 -2.845,-0.3125 0,0 -2.6399,-0.43677 -3.1888,-0.65625 -0.5489,-0.21948 -1.0004,-1.4375 -1.0004,-1.4375 0,0 -3.5,-1.42078 -3.9391,-1.75 -0.4391,-0.32922 -2.3135,-0.65625 -2.3135,-0.65625 0,0 -2.7496,-1.74927 -3.1888,-1.96875 -0.4391,-0.21948 -2.7512,-1.5625 -2.7512,-1.5625 0,0 -1.9681,-2.514531 -2.4072,-2.84375 -0.4393,-0.329219 -3.4077,-2.40625 -3.4077,-2.40625 l -4.0642,-2.1875 c 0,0 -4.1717,0.53125 -4.7208,0.53125 -0.5489,0 -2.6261,0.78125 -2.6261,0.78125 l -5.2521,-1.4375 c 0,0 -2.4211,0.328489 -2.97,0.21875 -0.5489,-0.10974 -1.8904,0.779792 -2.2196,1.21875 -0.3294,0.438959 -1.0928,1.077031 -1.5319,1.40625 -0.4391,0.329219 -2.4073,1 -2.4073,1 l -2.97,-0.125 -2.9699,-2.0625 -2.845,-0.21875 c 0,0 -1.5297,-1.888073 -2.1884,-2.65625 -0.6588,-0.768177 -1.108,-1.075573 -1.657,-1.84375 -0.5489,-0.768177 -0.8754,-1.4375 -0.8754,-1.4375 l -2.5322,-1.875 c 0,0 -2.1709,-0.96875 -2.72,-0.96875 -0.5489,0 -0.9028,0.528334 -2.0008,1.40625 -1.0978,0.877917 -0.871,0.683125 -2.1883,2 -1.3176,1.316875 -0.7656,1.420052 -0.8754,1.96875 -0.1097,0.548698 -1.9696,1.4375 -1.9696,1.4375 0,0 -1.8576,-0.561042 -2.6261,-1 -0.7685,-0.438959 -2.3134,-0.5625 -2.3134,-0.5625 l -1.7508,1.09375 -1.5631,1.34375 c 0,0 -1.8438,0.965834 -2.0634,1.84375 -0.2196,0.877917 -1.4381,1 -1.4381,1 l -2.7511,-0.125 c 0,0 -1.0892,0.10974 -2.6261,0 -1.5371,-0.10974 -2.6247,-0.21875 -3.0638,-0.21875 -0.4392,0 -0.5604,0.342292 -1.2192,0.78125 -0.6588,0.438958 -1.3132,1.21875 -1.3132,1.21875 0,0 -0.8738,0.98182 -1.3129,1.75 -0.4393,0.76818 -1.2005,0.85901 -2.1885,0.96875 -0.988,0.10974 -1.9818,-0.31104 -2.97,-0.75 -0.988,-0.43896 -1.105,-0.34302 -2.5323,-0.5625 -1.4272,-0.21948 -1.438,0.4375 -1.438,0.4375 l -1.5319,1.3125 c 0,0 -1.3108,1.98183 -1.9696,2.75 -0.6587,0.76818 -1.2193,1.21875 -1.2193,1.21875 0,0 -0.8571,7.3e-4 -1.6257,-0.21875 -0.7685,-0.21948 -1.5631,0 -1.5631,0 0,0 -2.6101,-0.88954 -2.7198,-1.21875 -0.1098,-0.32922 -1.7807,-1.3263 -2.2198,-1.875 -0.4391,-0.5487 -1.6256,-1.625 -1.6256,-1.625 0,0 -2.4203,-1.873542 -3.1889,-2.3125 -0.7685,-0.438959 -2.2959,-1.108281 -2.8449,-1.4375 -0.549,-0.329219 -1.782,-1.75 -1.782,-1.75 l -2.8449,-2.84375 c -0.5489,-0.548698 -1.9681,-1.436042 -2.4073,-1.875 -0.4391,-0.438959 -1.8743,-0.98401 -2.3134,-1.09375 -0.4391,-0.10974 -2.3135,-2.3125 -2.3135,-2.3125 0,0 -2.6377,-1.842291 -3.8453,-2.28125 -1.2076,-0.438958 -1.7485,-1.670781 -2.4073,-2 -0.6587,-0.329219 -2.6261,-0.96875 -2.6261,-0.96875 l -2.1884,-2.09375 -2.0009,-2.40625 -1.7507,0.21875 c 0,0 -0.9807,0.980364 -2.1884,2.1875 -1.2076,1.207135 -0.7641,1.106822 -1.313,1.875 -0.549,0.768177 -0.9961,1.308855 -2.3135,2.40625 -1.3174,1.097396 -0.9837,1.311041 -1.3131,1.75 -0.3294,0.438958 -1.2004,0.5625 -2.1884,0.5625 -0.9881,0 -2.6261,-0.34375 -2.6261,-0.34375 0,0 -2.9837,-0.96802 -3.5327,-1.1875 -0.549,-0.219479 -1.5297,-0.780521 -2.1883,-1 -0.6589,-0.219479 -1.3132,-1.53125 -1.3132,-1.53125 l -1.7507,-0.4375 c 0,0 -1.8742,1.639531 -2.3134,1.96875 -0.4392,0.329219 -1.8758,2.3125 -1.8758,2.3125 0,0 -1.1073,1.186771 -1.8757,1.40625 -0.7686,0.219479 -1.8577,0.5625 -2.6261,0.5625 -0.7686,0 -4.1581,1.53125 -4.1581,1.53125 l -3.5327,1.21875 -2.4072,1.1875 c 0,0 -1.3073,0.657708 -3.0638,0.21875 -1.7567,-0.438958 -1.87,-0.637343 -3.6265,-1.625 -1.7567,-0.987656 -1.657,-1.3125 -1.657,-1.3125 0,0 -1.3102,-0.125 -2.1883,-0.125 -0.8784,0 -1.1074,0.233281 -1.8758,0.5625 -0.7685,0.329218 -0.9669,1.294323 -1.6257,2.0625 C 1170.0447,93.111927 1168.0461,94 1168.0461,94 l -0.5315,1.53125 c 0,0 -2.2181,7.29e-4 -2.6573,-0.21875 -0.4391,-0.21948 -1.3131,-1.1875 -1.3131,-1.1875 0,0 -1.4214,-1.544323 -1.7507,-2.3125 -0.3293,-0.768177 -0.7497,-1.420052 -0.9691,-1.96875 -0.2197,-0.548698 -1.3269,-0.999271 -1.8758,-1.21875 -0.5489,-0.219479 -1.6541,0.10974 -2.5323,0 -0.8783,-0.10974 -0.8885,0.654062 -1.657,1.3125 -0.7685,0.658437 -0.3111,1.748541 -0.7503,2.1875 -0.4392,0.438958 -0.4348,1.231823 -1.313,2 -0.8783,0.768177 -2.4386,3.15625 -2.4386,3.15625 0,0 -1.9695,2.529795 -1.9695,2.96875 0,0.43896 -0.4348,1.54651 -1.3131,1.65625 -0.8782,0.10974 -1.6569,-0.125 -1.6569,-0.125 l -1.6256,-1.1875 -1.0005,-0.875 c 0,0 -1.9834,-1.342292 -2.5323,-1.78125 -0.5489,-0.438959 -2.9387,-1.3125 -2.9387,-1.3125 l -2.0009,0.34375 -1.6257,1.875 -1.5318,0.21875 -2.0947,-1.5625 -0.5627,-1.1875 -2.3135,-1.65625 c 0,0 -1.5121,-0.889532 -2.7199,-1.21875 -1.2076,-0.329219 -2.0946,-1.40625 -2.0946,-1.40625 l -2.6261,-0.125 c 0,0 -1.5456,-7.3e-4 -2.0945,0.21875 -0.5491,0.219479 -1.4359,0.327031 -2.0947,0.65625 -0.6587,0.329219 -1.0943,1.34375 -1.0943,1.34375 0,0 -1.8575,0.984739 -2.6261,0.875 -0.7684,-0.10974 -1.5318,-0.34375 -1.5318,-0.34375 l -2.3135,-1.4375 c 0,0 -2.5148,-1.07776 -3.0637,-1.1875 l -2.7512,-0.5625 c 0,0 -1.8744,-0.436771 -2.3134,-0.65625 -0.4392,-0.21948 -2.1885,-1.40625 -2.1885,-1.40625 l -1.6568,-1.34375 -2.7512,-1.09375 -3.3764,-1.84375 -1.2193,-1.125 -1.8758,-1.53125 c 0,0 0.2189,-1.622812 0.2189,-2.28125 0,-0.658437 -0.7503,-1.4375 -0.7503,-1.4375 0,0 -1.6555,-0.655521 -2.0947,-0.875 -0.4392,-0.219479 -1.4206,-0.76526 -1.9696,-0.875 -0.5488,-0.109739 -2.4384,-0.65625 -2.4384,-0.65625 0,0 -0.9669,-1.202031 -1.6257,-1.53125 -0.6588,-0.329218 -2.1885,-1.125 -2.1885,-1.125 l -2.6573,-0.75 c 0,0 -1.7478,-0.21875 -2.6261,-0.21875 z"
     id="rect5222"
     inkscape:connector-curvature="0"
     sodipodi:nodetypes="sccccccccccscccscccscccccccscsccsscccssccccscsscscsccsccccsscccccssssscssccssccsccscccccsscscccscccccscsssscsssscsccccccccccccsccccccscccccscscscccsscccsccsccccccccsssssccsssssscssssscscsscscssccsccccccccccccccccccccscccccccccccccccccccccscccccccccccccscccccsccccccccccccccccccccccccccccccccccccccccccccccccccccccccccccsccccccccccccccccccccccccccccccccccccccccccccccccccccccccccccccccccccccccccsscscccsscccccscsccccccsscsscccccsccccccscccccscssccccssscsccccccsccccscccsccccccccccscccsscsscsscscccssscssccscccsccscccccccsscccscscccscccsccscsccscsscsscssscccsccssscscccsccccsccsccsscscsscccsssccccccccccsccccccccccccscscsccsscccscccssccccssccccsccccccccsccsccccccccccsccscscccsccsssccsccccscscsccsccscccsccccccsccscccccsccsccccccscsccccscssccccsscccscccccccccccccccccccccccccscsccsccs" />
</svg>
