<svg version="1.2" xmlns="http://www.w3.org/2000/svg" viewBox="0 0 2107 188" width="2107" height="188">
	<title>footer-svg</title>
	<style>
		.s0 { opacity: 1;fill: #303c46 }
	</style>
	<path id="rect5222" class="s0" d="m1073.2 0.9l2.7 0.8c0 0 1.5 0.8 2.1 1.1 0.7 0.3 1.7 1.5 1.7 1.5 0 0 1.9 0.6 2.4 0.7 0.6 0.1 1.5 0.7 2 0.9 0.4 0.2 2.1 0.8 2.1 0.8 0 0 0.7 0.8 0.7 1.5 0 0.6-0.2 2.3-0.2 2.3l1.9 1.5 1.2 1.1 3.4 1.9 2.7 1.1 1.7 1.3c0 0 1.7 1.2 2.2 1.4 0.4 0.2 2.3 0.7 2.3 0.7l2.7 0.5c0.6 0.1 3.1 1.2 3.1 1.2l2.3 1.5c0 0 0.8 0.2 1.5 0.3 0.8 0.1 2.7-0.9 2.7-0.9 0 0 0.4-1 1.1-1.3 0.6-0.3 1.5-0.5 2.1-0.7 0.5-0.2 2.1-0.2 2.1-0.2l2.6 0.1c0 0 0.9 1.1 2.1 1.4 1.2 0.4 2.7 1.3 2.7 1.3l2.3 1.6 0.6 1.2 2.1 1.6 1.5-0.3 1.6-1.8 2-0.4c0 0 2.4 0.9 3 1.3 0.5 0.5 2.5 1.8 2.5 1.8l1 0.9 1.6 1.2c0 0 0.8 0.2 1.7 0.1 0.9-0.1 1.3-1.2 1.3-1.6 0-0.5 2-3 2-3 0 0 1.5-2.4 2.4-3.2 0.9-0.7 0.9-1.5 1.3-2 0.4-0.4 0-1.5 0.8-2.2 0.7-0.6 0.7-1.4 1.6-1.3 0.9 0.1 2-0.2 2.5 0 0.6 0.2 1.7 0.7 1.9 1.2 0.2 0.6 0.7 1.2 1 2 0.3 0.8 1.7 2.3 1.7 2.3 0 0 0.9 1 1.4 1.2 0.4 0.2 2.6 0.2 2.6 0.2l0.5-1.5c0 0 2-0.9 2.7-1.7 0.7-0.7 0.9-1.7 1.6-2 0.8-0.3 1-0.6 1.9-0.6 0.9 0 2.2 0.1 2.2 0.1 0 0-0.1 0.4 1.7 1.4 1.7 0.9 1.8 1.1 3.6 1.6 1.7 0.4 3-0.2 3-0.2l2.4-1.2 3.6-1.2c0 0 3.4-1.6 4.1-1.6 0.8 0 1.9-0.3 2.7-0.5 0.7-0.3 1.8-1.4 1.8-1.4 0 0 1.5-2 1.9-2.4 0.5-0.3 2.3-1.9 2.3-1.9l1.8 0.4c0 0 0.6 1.3 1.3 1.5 0.7 0.3 1.6 0.8 2.2 1 0.5 0.3 3.5 1.2 3.5 1.2 0 0 1.7 0.4 2.6 0.4 1 0 1.9-0.1 2.2-0.6 0.4-0.4 0-0.6 1.3-1.7 1.4-1.1 1.8-1.7 2.4-2.4 0.5-0.8 0.1-0.7 1.3-1.9 1.2-1.2 2.2-2.2 2.2-2.2l1.7-0.2 2 2.4 2.2 2.1c0 0 2 0.6 2.6 0.9 0.7 0.4 1.2 1.6 2.4 2 1.2 0.5 3.9 2.3 3.9 2.3 0 0 1.9 2.2 2.3 2.3 0.4 0.1 1.9 0.7 2.3 1.1 0.4 0.5 1.9 1.4 2.4 1.9l2.9 2.9c0 0 1.2 1.4 1.7 1.7 0.6 0.3 2.1 1 2.9 1.4 0.8 0.5 3.2 2.4 3.2 2.4 0 0 1.2 1 1.6 1.6 0.4 0.5 2.1 1.5 2.2 1.9 0.1 0.3 2.7 1.2 2.7 1.2 0 0 0.8-0.3 1.6 0 0.8 0.2 1.6 0.2 1.6 0.2 0 0 0.6-0.5 1.2-1.2 0.7-0.8 2-2.8 2-2.8l1.5-1.3c0 0 0.1-0.7 1.5-0.4 1.4 0.2 1.5 0.1 2.5 0.5 1 0.5 2 0.9 3 0.8 1-0.1 1.7-0.2 2.2-1 0.4-0.8 1.3-1.7 1.3-1.7 0 0 0.6-0.8 1.3-1.3 0.7-0.4 0.8-0.7 1.2-0.7 0.5 0 1.5 0.1 3.1 0.2 1.5 0.1 2.6 0 2.6 0l2.8 0.1c0 0 1.2-0.1 1.4-1 0.2-0.9 2.1-1.8 2.1-1.8l1.5-1.4 1.8-1.1c0 0 1.5 0.1 2.3 0.6 0.8 0.4 2.6 1 2.6 1 0 0 1.9-0.9 2-1.4 0.1-0.6-0.5-0.7 0.9-2 1.3-1.3 1.1-1.1 2.1-2 1.1-0.9 1.5-1.4 2-1.4 0.6 0 2.8 0.9 2.8 0.9l2.5 1.9c0 0 0.3 0.7 0.9 1.5 0.5 0.7 1 1 1.6 1.8 0.7 0.8 2.2 2.7 2.2 2.7l2.9 0.2 2.9 2 3 0.2c0 0 2-0.7 2.4-1 0.5-0.4 1.2-1 1.5-1.4 0.4-0.5 1.7-1.4 2.3-1.3 0.5 0.1 2.9-0.2 2.9-0.2l5.3 1.5c0 0 2.1-0.8 2.6-0.8 0.6 0 4.7-0.6 4.7-0.6l4.1 2.2c0 0 3 2.1 3.4 2.4 0.4 0.4 2.4 2.9 2.4 2.9 0 0 2.3 1.3 2.8 1.5 0.4 0.3 3.2 2 3.2 2 0 0 1.8 0.3 2.3 0.7 0.4 0.3 3.9 1.7 3.9 1.7 0 0 0.5 1.2 1 1.5 0.6 0.2 3.2 0.6 3.2 0.6 0 0 2.1 0.4 2.8 0.3 0.8-0.1 1.1 0 2.4-0.3 1.2-0.3 4.2-0.8 4.2-0.8 0 0 1.9 0.2 2.7 0.4 0.7 0.2 1.4 0.2 2.7 0.6 1.3 0.5 1.2 0.8 2.1 0.6 0.9-0.3 2.6-1.6 2.6-1.6l1.7-1.7 1.1-1.5c0 0 1.2-0.7 2-1.1 0.7-0.5 1.5-0.4 2-0.7 0.6-0.3 0.9-0.5 2-1 1.1-0.5 2.7-1.1 2.7-1.1 0 0 0.4 0.3 2.5-0.6 2.1-0.8 2.7-1 3.3-1.6 0.5-0.5 0.7-0.9 1.1-1.4 0.3-0.6 0.2-1 1.3-1.5 1.1-0.6 1.6-0.8 1.6-0.8 0 0 2.1 0.4 3.2 0.6 1.1 0.2 2.4 0.8 3.3 1 0.9 0.2 4.3 0.7 4.3 0.7 0 0 2.7 0.3 3.2 0.8 0.4 0.4 1.2 0.5 2.3 1.5 1.1 1 1.5 1.5 1.5 1.5 0 0 1.8 1.1 2.2 1 0.4-0.1 2.3-0.3 3 0 0.6 0.4 0.7 0.5 1.9 1.1 1.3 0.7 2.6 1 3.3 1.2 0.8 0.2 2.3 0.4 2.8 0.9 0.4 0.4 3.8 1.6 3.8 1.6l2.2 1.1 2.2 1.3c0 0 1.2 0.6 1.6 1 0.3 0.5 1.8 1.4 1.8 1.4l3 1.2c0 0-0.4 1.1 0.6 1.5 1 0.4 3.2 0.9 3.2 0.9l2.8 0.5 2.7 1.4c0 0 0.4 1.2 0.9 1.3 0.5 0.1 2.4 0.9 2.4 0.9l2.2 0.8 1.9 0.1 1.9-0.2c0 0 1.9-0.3 2.5-0.7 0.5-0.3 1.9-1.5 1.9-1.5l2.9-1.5 1.5-0.9c0 0 1.8 0.4 2.2 0.7 0.5 0.2 2.2 1.3 2.7 1.4 0.4 0.1 1.7 0.7 2 0 0.4-0.7-0.7-0.4 0.6-1.8 1.3-1.4 1.6-1.3 2.2-2.6 0.5-1.3 0.6-1.5 1.5-2.9 0.9-1.3 2.1-4.4 2.1-4.4 0 0 1.9-2 2.5-2.2 0.7-0.3 1.5 0 2.6-0.5 1.1-0.4 0.9-1.1 2.5-1.3 1.5-0.2 2.3-0.5 2.3-0.5 0 0 1.4 1.8 2.2 1.8 0.7 0 0.9 0.1 1.8-0.6 0.8-0.8 1.6-1.5 2-1.7 0.5-0.2 0.5-0.6 2.1-0.3 1.7 0.2 2.2 0.1 3.3 0.4 1.1 0.3 2.1 0.7 3.3 0.3 1.2-0.3 1.8-0.1 3.2-0.6 1.4-0.6 2.4-0.9 2.4-0.9l3.9-3.2c0 0 0.4-1 1.8-1.4 1.4-0.5 4 0.4 4 0.4 0 0 0.7 1.8 1.7 2.2 1 0.5 2.8 1 3.5 0.8 0.8-0.2 3.6-1.1 3.6-1.1 0 0 2 0.8 2.6 1.2 0.5 0.5 5.8 1.6 5.8 1.6l2.9 2.3 1.6 0.5c0 0 3.5 2.2 4 2.6 0.4 0.5 1.9 2.2 1.9 2.2 0 0 2.5 3 3.7 3 1.2 0 1.6 0.5 2.7-0.1 1.1-0.7 3.1-0.9 3.7-1.8 0.7-0.8 1.5-1.4 1.5-1.4 0 0 1.5 1.2 2 1.3 0.6 0.1 0.6 0.2 2.1 0.1 1.6-0.1 1.9 0.7 3.2-0.2 1.3-0.9 2.6-1.5 3.2-2.2 0.7-0.7 1-1.1 2-1.5 1-0.5 1.2-0.8 3.6-0.8 2.4 0 3.9 0.1 4.5 0.1 0.7 0 4.3-0.3 4.8-0.3 0.6 0 3.1 0.1 4.1 0.2 1 0.1 2.8 0.1 4.3 0 1.4-0.1 7.1-2.5 7.8-2.6 0.6-0.2 3.4-1 3.4-1 0 0 1.6-1 2.4-1.7 0.8-0.6 2.7-3 3.9-3.6 1.2-0.5 1.5-2.1 1.9-2.4 0.5-0.3 3.1-0.6 3.6-0.8 0.6-0.2 2-0.4 3.3 0.1 1.3 0.6 3.9 2.1 4.5 2.7 0.7 0.5 2.1 1.3 2.9 1.5 0.7 0.2 1.5 0.6 2.3 0.1 0.8-0.4 1.8-1.3 2.6-1.2 0.8 0.1 3 1.7 3 1.7 0 0 0.8 0.9 1.6 1.4 0.9 0.5 1.8 1.2 2.7 1.4 0.8 0.2 1.1 0.6 2.3 0 1.2-0.5 0.8-0.5 2.3-1 1.5-0.4 2.4-1.1 3.1-1.2 0.8-0.1 1.9-0.8 2.5-0.8 0.5 0 2.7 1.2 2.7 1.2l3.2 0.8 2.5 1.2c0 0 2.3 0.2 2.9 0.2 0.5 0 1.2-0.5 2.5 0.2 1.3 0.6 1.2 1.3 2.5 1.4 1.4 0.1 1.1 0.6 3-0.2 1.9-0.9 2.2-2 2.2-2 0 0 2 1.1 2.4 1.2 0.4 0.1 2.6-0.4 3.1-0.4 0.4 0 0.9-0.7 2.1-0.5 1.2 0.3 3.5 0.7 3.5 0.7l2.4 2c0 0 1 0.8 1.7 1.2 0.6 0.3 1.3-0.2 2.7 0.1 1.4 0.2 2.7 0.5 3.4 0.7 0.6 0.3 3 0.7 3.5 0.5 0.6-0.2 2-1.1 2.4-1.3 0.5-0.2 1-0.6 2.3-0.7 1.4-0.1 2.9-0.5 2.9-0.5l3.3 0.7c0 0 1.6 0.7 2.1 0.7 0.4 0 2.1 0.3 2.1 0.3l3.1 1.1 1.7 0.7c0 0 1.2 0.8 1.7 0.9 0.6 0.1 1.8 0.4 2.5 0.7 0.6 0.3 2.1 0.7 2.6 0.9 0.4 0.2 1.3 0.7 2.2 1 0.9 0.3 1.3 0.4 2.7 0.9 1.5 0.4 2.4 0.6 3 0.7 0.5 0.1 1.3 0.2 2.4 0.4 1.1 0.1 1.8-0.1 3-0.1 1.2 0 1.8-0.2 2.5-0.2 0.7 0 2.1 0 2.9-0.5 0.7-0.6 0.9-0.6 2.3-1.2 1.3-0.7 2.8-1.9 3.3-2.1 0.6-0.2-0.3 0.3 2.5-0.9 2.7-1.2 3.4-1.6 3.4-1.6 0 0 1.7-0.3 2.5-0.3 0.8 0 1 0 1.9-0.4 0.8-0.4 1.3-0.7 1.5-1.2 0.2-0.4-0.7-0.9 0.9-1.2 1.5-0.3 1-0.7 1.8-0.6 0.9 0.1 1.7 0.2 2.8 0.8 1.1 0.7 1.3 0.7 1.7 1.5 0.5 0.7 0.3 0.4 0.8 1.1 0.6 0.6 1.1 0.9 1.9 1.5 0.7 0.5 2.2 1.1 2.2 1.1l2.5 1.1c0 0 1.4 0.1 1.9 0.1 0.4 0 2.6 0.4 2.6 0.4h1.7 2.8l1.5 0.5c0 0-0.4 0.3 0.5 0.9 0.8 0.7 2.1 1.2 2.5 1.6 0.4 0.4 2 1.5 2 1.5l3.8 1.2c0 0 1.7-0.4 2.1-0.2 0.5 0.2 1.2 0.7 1.8 1 0.5 0.3 1.8 0.4 2.4 0.4 0.5 0 2.4-0.8 2.4-0.8 0 0 2-0.8 2.4-1.1 0.5-0.4 1.9-1.2 1.9-1.2 0 0-0.7-1.2 1-1 1.6 0.2 1.4 0.3 2.6 0.1 1.2-0.2 1.1 0.1 2.6-1.1 1.6-1.2 2.4-1.9 3-2.4 0.7-0.6 1.4-1.2 2-1.9 0.5-0.7 1.1-1.1 1.6-1.7 0.6-0.5 0.9-1.4 1.6-1.7 0.6-0.3 1.4-0.8 1.7-1.2l1-1.3 1-0.4 3.8-0.3c0 0 0.9-0.2 1.6-0.1 0.6 0.1 2.4 0.2 3.3 0.3 0.9 0.1 1.4-0.4 2.4-1.1 1-0.6 0.3-1.5 1.9-1.4 1.5 0.1 2.5-0.2 4.1-0.1 1.7 0.1 1.7-0.4 3.1-0.4 1.4 0 2.1 0.1 2.6-0.8 0.6-0.9 0.1-0.7 1.7-2.1 1.5-1.4 2-2.9 2.8-3.4 0.9-0.4 0.7-0.8 2-0.5 1.3 0.2 2.7 0.6 3.7 1 1 0.5 1.8 0.8 2.9 1.3 1.1 0.4 2 1.1 3.2 1.8 1.2 0.8 2.2 1.3 2.7 1.7 0.6 0.3 3 1.6 3 1.6 0 0 3.6 2.7 4.4 3 0.7 0.3 4.5 2.7 4.5 2.7l2.4 1.6 8 5.2c0 0 0.8 0.5 1.8 1.4 1 0.8 2.5 1.5 2.5 1.5l2.3 0.5c0 0 2.9 1.8 3.4 2 0.6 0.2 2.4 1.4 3 1.9 0.5 0.4 2.2 0.9 2.9 1.6 0.8 0.8 1 1 2 1.8 1 0.7 2.9 2.3 3.5 2.7 0.7 0.5 3 2.1 3 2.1l3.2 0.6 2-0.6c0 0 3.3 0.1 3.7-0.5 0.3-0.7 0.8-1.5 1.7-1.6 0.9-0.1 1.9 0.3 3.6-0.3 1.6-0.7 0.9-0.9 3.1-1.3 2.2-0.5 3.1-0.1 5.2-0.7 2.1-0.5 4.3-0.2 4.8-0.2 0.6 0 2.1-0.9 3-1 0.9-0.1 1-0.2 2.5-0.5 1.6-0.4 2.4-0.7 3.4-0.5 1 0.2 3.1 0.6 4.5 0.3 1.4-0.2 6.9-0.2 6.9-0.2l4.2 0.4 3 0.8c0 0 4.5 1.9 4.9 1.9 0.4 0 3.4 1.2 4.4 1.4 1 0.2 2.4 1.2 3.5 1.5 1.1 0.2 4.3 1.3 4.3 1.3l2.8 0.4 3.3-1.3 1.6-0.9 2.9-0.8c0 0 3.1-0.3 4-0.6 0.9-0.3 3.3-0.3 4.3-0.2 1 0.1 4.5 0.1 4.5 0.1 0 0 3.1 0.4 3.6 0.5 0.6 0.1 3.6 1.5 4.4 1.7 0.8 0.2 3.3 1.3 4.1 1.5 0.9 0.2 4.8 1.7 4.8 1.7 0 0 1.8 1 2.9 1.2 1.1 0.1 1.9 0.1 3 0.2 1.1 0.1 5.2 1 5.2 1l4 2.9 3.2 2.6 5.3 3.2 2.5 3 1.2 0.9 3.7 2.7c0 0 1.6 0.4 2.5 1.1 0.9 0.8 1.7 2.2 2.4 2.4 0.6 0.3 3 2.7 3 2.7l3 2.5 3.7 1.4 3.2 1c0 0 5.8 3.7 6.2 3.9 0.4 0 2.1 2.5 2.6 3.1h0.9v93.9h-2107.4l0.3-101.8 13.1-5.1-0.6 0.2 0.4-0.2 3.6-1.1 11.2-0.3 2.1-0.8 4.7 1 3.2 2.1 1.8 0.5 4.5-3.1 4.9-1.6 4.8-1.1 3.3-1 3.9-0.3 6-1.6 2.1 0.1 2.4 1.3 1.8 0.5 2.4-0.2 3.3-0.5 2.2-0.7 4-0.4h2.3l2.8-1.5 1.1-0.5 1.4-0.9h1.6 1.4l2.6 4.8 2 1.1 3.1-2.5 7.6-3.5 5.1-1.8 3.8-1.7 5.7-2.3 3.6-2.2 2.9-2.5 2.1-1.8 2.9-1.9 0.8-0.6 3.6-0.8 1.8-0.6 4.1-0.5 2.9 1.1 1.7 1.4 2.7 1.2 3.2 0.5 1.7 0.8 3.9 3.6 3.1 1.5 3.3 2.4 2.9 1 2.1 0.5 5.2 0.5 2.8 1.2c0 0 5.5 3.4 6.1 3.4 0.6 0 4.6 2.7 4.6 2.7l5.6 2.6 3 1.6 3.1 0.3 3.2 2 5 0.6 4.2-0.9 2.6-1.6h1.3l1.7 2.3 0.1 2.2 0.8 1.3 6.4 0.7 1.8 0.7 2.9 2 2.3 1.7 1.1 0.9h2.9l2.3-0.9 4.7-1 4.5-0.7 2.3-1.3 4.4-0.3 2.2-1.1 4.1 0.3 4.2-1 3.3-0.5 2.8-1.7 3.7-1.1 3.3-2 3.2-0.6 2.8-1 4.4 0.4 5.9-1.6h3.2 3.6l4.8-1.1 6.5-2.5 4.7-3.4 5-1.9 5.5-2 3.8-2.1 3.7-3.1 3.3-3.3 2.7-2.5 3.3-2.8 3.1-1.8 3.7-1.3 3.9-0.6 5.5 1.4 3.4 0.6 2.9 2.2 4.5 0.3 3.3 2 3.4 2 3.9 2.2 4.8 0.8h5l2.2 1.1 2.4 0.9c0 0 3.6 0.1 4.2 0.1 0.6 0 5.8-0.1 5.8-0.1 0 0 2.9-0.3 3.5-0.5 0.6-0.1 3.3-2.5 3.3-2.5l3.4-4.9 4.4-2.3c0 0 2-0.7 2.6-1 0.6-0.3 3.4-3.8 3.4-3.8l2.2-1.6 5.7-0.5 4.5-2.8 5-4.8 4.5-4.5 3.9-3.6 3.6-2.9 2.8-3.1 3.2-0.8 4.8 1.1 3.3-2.3 3.1-1.9c0 0 2-0.6 2.6-0.8 0.7-0.1 3.1 0 3.1 0l2.7 1.4 3.4 2.7 2.3 2.4 2.5 1.3 2.5-1.6 2.9-1 2.1-1.9 1.8-1.1 2 0.6 2.5 2.1 2.1 2.4 1.2 2.5 2.5-1.5 1.2-1.9 2.2-1.2 1.7-1.7 2.5 0.4 2.3 1.3h2.3l2.7-2.1c0 0 2-2.3 2.6-2.3 0.6 0 3.7-1.4 3.7-1.4l2.8-2.3 3-2.5 2.9-2.6 2.4-0.3h3.9l3 1.7 3.3 2 3.9 2.5 3.1 2 3.6 0.5 3.1 0.3 3.4 1.5 3.7 1.9 1.9 2.4 2 1.9 3.7 2.6 3.7 2.1 2.7 1.7 5.1-3.1c0 0 0.9-1.4 1.7-2 0.8-0.6 3.4-2.4 3.4-2.4l4.2-2.1c0 0 3.4-1.4 4-1.6 0.7-0.2 1.8 0 2.4-0.5 0.7-0.4 1.9 0.4 1.9 0.4 0 0 1.2 1.5 1.7 1.5 0.4 0 3.2 0.1 3.2 0.1 0 0 2.9-1 3.4-1.1 0.4-0.1 1.7 0 2.5-0.4 0.7-0.5 2.3-1 2.3-1 0 0 1.6-0.5 2.1-0.8 0.4-0.3 2.3-1.3 2.3-1.3 0 0 1-0.1 2.5-0.8 1.5-0.6 2.4-0.9 3-1.1 0.5-0.1 1.8-0.3 2.6-0.5 0.8-0.2 2 0.1 3.1-0.8 1.1-0.9 2.8-1.6 3.3-2 0.4-0.3 2.5-0.8 2.5-0.8 0 0 0.9-0.8 1.4-1.1 0.6-0.4 2.9-1.5 3.3-1.7 0.5-0.2 2.6-1 3-1.3 0.4-0.3 2.1-1.2 2.6-1.4 0.6-0.2 1.6-0.6 2.3-0.6 0.8 0 1.9-0.3 2.7-0.1 0.7 0.3 2.9 0.8 2.9 0.8l3.2 0.5c0 0 1.1 1.4 1.6 1.6 0.4 0.2 0.7 0.7 1.4 0.9 0.6 0.3 1.9 0 2.5 0.3 0.5 0.2 3 0.3 3.4 0.1 0.4-0.2 1.9-1.7 2.3-1.5 0.5 0.1 3.1 0 3.1 0l1.2 1.5 2.6 2 3.5 1.7 2.1 1.6 2 2 2.1 2.3 2.2 1.6c0 0 1.3 0.6 1.7 1.2 0.5 0.5 2 1.6 2 1.6l1.6 1.7c0 0 1 0.4 1.4 0.8 0.3 0.5 3.1 2.7 3.1 2.7l1.6 0.7 2.4 0.5c0 0 1.5-1.6 2.3-1.9 0.8-0.3 2.3-1.3 2.9-2 0.5-0.6 1.7-0.4 1.7-0.4l1.9 2 2.3-1c0 0 2.4-0.5 3-1.1 0.5-0.5 1.9-2.4 1.9-2.4 0 0 2.1-0.8 2.6-1.1 0.4-0.3 1.9-1 1.9-1 0 0 1.8 0.1 2.2 0.3 0.5 0.3 2.8 0.7 2.8 0.7l1.4 0.6 2.3 2.7 1.1 1.3 0.2 1.1c0 0 0.8 1.3 1 1.8 0.3 0.4 1 1.7 1 1.7l1.3 1.4 1.8-1.5 0.7-0.8 2.1 1.1 1.6 1.5c0 0 0.4 0.9 1.1 1.2 0.6 0.3 1.4 0.5 1.4 0.5l1.3-0.3 0.8-1.4 0.3-0.6 2.4 1.3 2.8 1.2 1.5-0.1 2.1-0.4 1.7-1.9 1.8-1.9 2.8-2.5 1.5-1.4c0 0 1.4-0.8 1.9-1.2l1.7-1.8c0 0 1 0.5 2.4-0.4 1.4-0.9 2.7-1.1 3.5-1.3 0.9-0.2 2.3-0.6 3.1-0.8 0.8-0.2 2.1-0.8 2.5-0.6 0.5 0.1 2.8 0 2.8 0 0 0 0.9-0.9 1.6-0.8 0.8 0.1 3.2-0.5 3.6-0.2 0.5 0.3 1.6 0.6 2.2 0.9 0.7 0.2 1.7 0.6 2.4 0.8 0.6 0.3 2.1 0.7 2.1 0.7 0 0 1.8 0.7 2 1.2 0.3 0.4 3 2.1 3 2.1l2.3 1.9 2.1 1.4 1.3 1.3 2.2 1.3c0 0 1 0.8 1.5 1.1 0.6 0.3 1.5 0.3 2.2 1 0.8 0.6 2 1 2 1l2 0.6c0 0 2 0 2.5 0.2 0.6 0.1 3.1-0.2 3.1-0.2 0 0 2 0.5 2.5 0.2 0.6-0.2 2.2-0.9 2.5-1.4 0.4-0.4 1.7-1.6 1.7-1.6l2-2.2 1.6-1.8 1.2-1 2.9-1c0 0 1-1.2 1.5-1.6 0.4-0.3 1.4-1.8 1.4-1.8l1.8-0.8c0 0 1.5-0.1 2.3-0.1 0.8 0 2.2 0.3 2.2 0.3l4.2 0.5c0 0 0.9 0 1.8 0.1 0.9 0.2 1.8 1.1 3 1.1 1.2 0 2.8-0.3 2.8-0.3l1.2-1.5c0 0 0.9-0.6 1.5-0.4 0.5 0.1 1 0.7 2.2 0.9 1.2 0.2 2.9 1 2.9 1 0 0 2.2 1.2 3.1 1 0.9-0.2 1.8-0.3 2.6-0.1 0.9 0.2 2.6 1.2 3.7 1.2 1.1 0 1.6 0.7 2.5 0.5 0.9-0.3 2.6-0.9 3.1-1.4 0.4-0.4 1.4-1.7 1.4-1.7l1.7-1.7 1.8-2.3 2.2-1.7 1.8-2.2c0 0 0.8-1 1.3-1 0.4 0 1.1 0.2 1.6 0.4 0.6 0.2 2.8 1.6 2.8 1.6l2.5-0.1 1.2-0.3 2.2 2c0 0 1.3 1.9 1.7 1.9 0.5 0 3.7 0.4 3.7 0.4l1.9-0.4c0 0 1.8-0.2 2.3-0.3 0.4-0.1 2.5-0.2 2.5-0.2 0 0 0.9 0.7 2 0.8 1.1 0.1 4 3.1 4 3.1 0 0 1.1 0.9 1.8 1.2 0.6 0.3 2 1.4 2.5 1.6 0.4 0.3 1.9 1.1 1.9 1.1 0 0 1.1 1 1.6 1 0.6 0 2.2 0.1 2.2 0.1l1.4 0.7 1.8 1.1h2.5c0 0 2.1 0.4 3 0.4 0.8 0 3.4 0.9 4 0.9 0.7 0 2.2-0.5 2.2-0.5l3.9 1.3 3.1 2.1c0 0 0.7 0.9 1.8 0.9 1.1 0 2.4 0.3 3.3 0.2 0.9-0.2 4.5-0.3 4.5-0.3l5.3-0.3c0 0 4.7-0.2 5.4-0.1 0.6 0.1 5.1-1.8 5.1-1.8 0 0 1-2.2 1.7-2.6 0.6-0.4 2.6-0.8 3.1-0.4 0.4 0.3 2.8 1.4 2.8 1.4l1.9 1.3 2.9 0.9 3.8-0.5 6.1-0.1c0 0 2.5 0 3.5-0.7 1-0.8 4.3-2 4.7-2.2 0.5-0.2 2.9-0.5 3.5-1 0.7-0.6 2.6-1.3 2.6-1.3 0 0 1.3-1 2.2-1.1 0.8-0.1 1.2 0.3 2.5 0.2 1.3-0.1 2.5-0.2 3.2-0.7 0.6-0.4 2.7-2.5 3.2-3.1 0.4-0.5 1.5-1.6 2.2-1.8 0.6-0.2 1.9-0.9 2.4-0.9 0.4 0 1.8 0.8 1.8 0.8 0 0 0 1.9 1.6 1.1 1.5-0.9 4-4.6 4-4.6 0 0 7.7-8.2 8.4-8.7 0.7-0.6 2.2-3.7 2.6-3.9 0.5-0.1 3.9-2 3.9-2l2.1-0.5 1.5 0.3 2.8-1.7 1.3-1.1c0 0 0.4-1.1 1.3-1.1 0.8 0 2.6 0.2 2.6 0.2z"/>
</svg>