<svg width="42" height="67" viewBox="0 0 42 67" fill="none" xmlns="http://www.w3.org/2000/svg">
    <path fill-rule="evenodd" clip-rule="evenodd"
          d="M0.0837402 8.30203C0.0837402 3.92594 3.64204 0.378418 8.03144 0.378418H33.4641C37.8535 0.378418 41.4118 3.92594 41.4118 8.30203V59.0131C41.4118 63.3892 37.8535 66.9368 33.4641 66.9368H8.03144C3.64205 66.9368 0.0837402 63.3892 0.0837402 59.0131V8.30203ZM8.03144 3.54786C5.3978 3.54786 3.26282 5.67638 3.26282 8.30203V59.0131C3.26282 61.6388 5.3978 63.7673 8.03144 63.7673H33.4641C36.0977 63.7673 38.2327 61.6388 38.2327 59.0131V8.30203C38.2327 5.67638 36.0977 3.54786 33.4641 3.54786H8.03144Z"
          fill="#000000"/>
    <path fill-rule="evenodd" clip-rule="evenodd" d="M25.5165 57.4284H15.9792V54.259H25.5165V57.4284Z" fill="#000000"/>
    <path fill-rule="evenodd" clip-rule="evenodd"
          d="M9.62109 1.96314C9.62109 1.08792 10.3328 0.378418 11.2106 0.378418H30.2851C31.163 0.378418 31.8746 1.08792 31.8746 1.96314V3.54786C31.8746 7.92395 28.3163 11.4715 23.9269 11.4715H17.5688C13.1794 11.4715 9.62109 7.92395 9.62109 3.54786V1.96314ZM12.8002 3.54786C12.8002 6.17352 14.9352 8.30203 17.5688 8.30203H23.9269C26.5606 8.30203 28.6956 6.17352 28.6956 3.54786H12.8002Z"
          fill="#000000"/>
</svg>
