<?xml version="1.0" encoding="UTF-8" standalone="no"?>
<!-- Created with Inkscape (http://www.inkscape.org/) -->

<svg
   xmlns:dc="http://purl.org/dc/elements/1.1/"
   xmlns:cc="http://creativecommons.org/ns#"
   xmlns:rdf="http://www.w3.org/1999/02/22-rdf-syntax-ns#"
   xmlns:svg="http://www.w3.org/2000/svg"
   xmlns="http://www.w3.org/2000/svg"
   xmlns:sodipodi="http://sodipodi.sourceforge.net/DTD/sodipodi-0.dtd"
   xmlns:inkscape="http://www.inkscape.org/namespaces/inkscape"
   id="svg2985"
   version="1.1"
   inkscape:version="0.48.5 r10040"
   width="1400"
   height="212.5"
   sodipodi:docname="tatry_ink1400.svg"
   inkscape:export-filename="C:\Users\chuchmaczm\Desktop\bitmap3.png"
   inkscape:export-xdpi="90"
   inkscape:export-ydpi="90">
  <metadata
     id="metadata2991">
    <rdf:RDF>
      <cc:Work
         rdf:about="">
        <dc:format>image/svg+xml</dc:format>
        <dc:type
           rdf:resource="http://purl.org/dc/dcmitype/StillImage" />
        <dc:title></dc:title>
      </cc:Work>
    </rdf:RDF>
  </metadata>
  <defs
     id="defs2989">
    <inkscape:path-effect
       effect="spiro"
       id="path-effect3802"
       is_visible="true" />
    <inkscape:path-effect
       effect="spiro"
       id="path-effect3798"
       is_visible="true" />
  </defs>
  <sodipodi:namedview
     pagecolor="#ffffff"
     bordercolor="#666666"
     borderopacity="1"
     objecttolerance="10"
     gridtolerance="10"
     guidetolerance="10"
     inkscape:pageopacity="0"
     inkscape:pageshadow="2"
     inkscape:window-width="2194"
     inkscape:window-height="1171"
     id="namedview2987"
     showgrid="false"
     inkscape:zoom="0.54750013"
     inkscape:cx="995.47542"
     inkscape:cy="-147.2"
     inkscape:window-x="-8"
     inkscape:window-y="-8"
     inkscape:window-maximized="1"
     inkscape:current-layer="svg2985"
     fit-margin-top="0"
     fit-margin-left="0"
     fit-margin-right="0"
     fit-margin-bottom="0" />
  <path
     style="fill:#303c46;fill-opacity:1;stroke:none"
     d="m 808.03125,0 c -1.0003,0 -1.5,1.25 -1.5,1.25 l -1.375,1.25 -3.25,1.875 -1.75,-0.25 -2.375,0.5 c 0,0 -3.8747,2.21877 -4.375,2.34375 -0.5001,0.12498 -2.2496,3.7501 -3,4.375 -0.7501,0.62489 -9.5,9.90625 -9.5,9.90625 0,0 -2.8747,4.21892 -4.625,5.21875 -1.7505,0.99984 -1.75,-1.25 -1.75,-1.25 0,0 -1.6562,-0.84375 -2.1562,-0.84375 -0.5001,0 -1.9688,0.75004 -2.7188,1 -0.7503,0.24996 -2,1.46885 -2.5,2.09375 -0.5001,0.62489 -2.8747,3.03134 -3.625,3.53125 -0.7502,0.49991 -2.156,0.62502 -3.6562,0.75 -1.5006,0.12498 -1.8749,-0.37498 -2.875,-0.25 -1.0001,0.12498 -2.5,1.25 -2.5,1.25 0,0 -2.125,0.87512 -2.875,1.5 -0.7503,0.6249 -3.4686,0.87504 -3.9688,1.125 -0.5002,0.24996 -4.2808,1.62514 -5.4062,2.5 -1.1253,0.87486 -4,0.84375 -4,0.84375 l -7,0.15625 -4.25,0.5 -3.3438,-1 -2.1562,-1.5 c 0,0 -2.7187,-1.28131 -3.2188,-1.65625 -0.5002,-0.37494 -2.7811,7.5e-4 -3.5312,0.5 -0.7502,0.49992 -1.8438,3 -1.8438,3 0,0 -5.1248,2.15623 -5.875,2.03125 -0.7502,-0.12498 -6.1875,0.09375 -6.1875,0.09375 l -5.9687,0.40625 c 0,0 -4.1249,0.12502 -5.125,0.25 -1.0003,0.12498 -2.4998,-0.15625 -3.75,-0.15625 -1.2503,0 -2.125,-1.09375 -2.125,-1.09375 l -3.5,-2.375 -4.375,-1.40625 c 0,0 -1.7811,0.5 -2.5313,0.5 -0.7502,0 -3.6248,-1 -4.625,-1 -1.0003,0 -3.3437,-0.5 -3.3437,-0.5 l -2.875,0 -2,-1.21875 -1.625,-0.75 c 0,0 -1.875,-0.15625 -2.5,-0.15625 -0.6252,0 -1.9063,-1.09375 -1.9063,-1.09375 0,0 -1.6249,-1.00004 -2.125,-1.25 -0.5002,-0.24995 -2.0935,-1.50007 -2.8437,-1.875 -0.7502,-0.37494 -2,-1.40625 -2,-1.40625 0,0 -3.3748,-3.34378 -4.625,-3.46875 -1.2503,-0.12498 -2.2813,-0.90625 -2.2813,-0.90625 0,0 -2.3436,0.12502 -2.8437,0.25 -0.5002,0.12498 -2.5313,0.28125 -2.5313,0.28125 l -2.25,0.5 c 0,0 -3.6249,-0.5 -4.125,-0.5 -0.5001,0 -2,-2.125 -2,-2.125 l -2.4687,-2.25 -1.4063,0.25 -2.875,0.09375 c 0,0 -2.4687,-1.46879 -3.0937,-1.71875 -0.6252,-0.24995 -1.4061,-0.5 -1.9063,-0.5 -0.5001,0 -1.5,1.125 -1.5,1.125 l -1.9687,2.5 -2.5313,2 -2.0937,2.625 -1.9063,1.84375 c 0,0 -1.1249,1.53133 -1.625,2.03125 -0.5001,0.49992 -2.4998,1.25005 -3.5,1.5 -1.0003,0.24996 -1.6247,-0.5 -2.875,-0.5 -1.2503,0 -3.1248,-1.12504 -4.125,-1.375 -1.0003,-0.24995 -1.9998,-0.12496 -3,0.125 -1.0003,0.24996 -3.5,-1.125 -3.5,-1.125 0,0 -1.9997,-0.90629 -3.375,-1.15625 -1.3754,-0.24996 -1.8748,-0.96877 -2.5,-1.09375 -0.6251,-0.12497 -1.625,0.5 -1.625,0.5 l -1.40625,1.75 c 0,0 -1.84335,0.34375 -3.21875,0.34375 -1.3753,0 -2.40605,-1.12503 -3.40625,-1.25 -1.0003,-0.12498 -2.09375,-0.09375 -2.09375,-0.09375 l -4.75,-0.65625 c 0,0 -1.6248,-0.34375 -2.5,-0.34375 -0.8753,0 -2.625,0.09375 -2.625,0.09375 l -2,1 c 0,0 -1.15615,1.65631 -1.65625,2.03125 -0.5002,0.37494 -1.75,1.75 -1.75,1.75 l -3.21875,1.25 -1.40625,1.09375 -1.84375,2.03125 -2.28125,2.5 c 0,0 -1.46871,1.37509 -1.84375,1.875 -0.3751,0.49992 -2.24985,1.34379 -2.875,1.59375 -0.62516,0.24996 -2.90625,-0.25 -2.90625,-0.25 0,0 -2.84358,0.28123 -3.46875,0.15625 -0.62516,-0.12498 -2.90625,-0.15625 -2.90625,-0.15625 l -2.21875,-0.75 c 0,0 -1.37478,-0.37513 -2.25,-1.125 -0.87522,-0.74988 -1.90609,-0.71881 -2.53125,-1.09375 -0.62516,-0.37494 -1.75,-1.25 -1.75,-1.25 l -2.5,-1.5 -1.46875,-1.53125 -2.40625,-1.5 -2.625,-2.25 c 0,0 -3.09368,-1.87508 -3.34375,-2.375 -0.25006,-0.49991 -2.28125,-1.34375 -2.28125,-1.34375 0,0 -1.74981,-0.50005 -2.5,-0.75 -0.75018,-0.24996 -1.8748,-0.75004 -2.625,-1 -0.75017,-0.24996 -1.99986,-0.62506 -2.5,-1 -0.50012,-0.37494 -3.24978,0.37498 -4.125,0.25 -0.87521,-0.12498 -1.84375,0.84375 -1.84375,0.84375 0,0 -2.65613,0.12498 -3.15625,0 -0.50013,-0.12498 -1.99978,0.50004 -2.875,0.75 -0.87523,0.24996 -2.49975,0.65629 -3.5,0.90625 -1.00025,0.24996 -2.3746,0.50017 -4,1.5 -1.62542,0.99984 -2.75,0.5 -2.75,0.5 l -2,1.96875 C 475.18738,31.09365 473.5625,32 473.5625,32 l -1.75,1.59375 -3.125,2.78125 -2.125,2.25 -1.875,2.125 -2.375,0.5 -1.75,0.09375 -3.125,-1.34375 -2.75,-1.53125 -0.40625,0.65625 -0.84375,1.625 -1.5,0.34375 c 0,0 -0.87482,-0.21881 -1.625,-0.59375 -0.7502,-0.37494 -1.25,-1.375 -1.25,-1.375 l -1.75,-1.65625 -2.375,-1.25 -0.875,0.90625 -2.03125,1.75 -1.46875,-1.65625 c 0,0 -0.87493,-1.50008 -1.125,-2 -0.25007,-0.49992 -1.125,-1.96875 -1.125,-1.96875 l -0.25,-1.25 -1.25,-1.5 -2.625,-3.03125 -1.65625,-0.75 c 0,0 -2.59362,-0.50005 -3.09375,-0.75 -0.50012,-0.24996 -2.53125,-0.34375 -2.53125,-0.34375 0,0 -1.74988,0.71881 -2.25,1.09375 -0.50013,0.37494 -2.875,1.25 -2.875,1.25 0,0 -1.62484,2.15635 -2.25,2.78125 -0.62515,0.62488 -3.375,1.25 -3.375,1.25 l -2.59375,1.09375 -2.125,-2.25 c 0,0 -1.37485,-0.24987 -2,0.5 -0.62516,0.74988 -2.40602,1.87506 -3.28125,2.25 -0.87521,0.37493 -2.59375,2.125 -2.59375,2.125 l -2.78125,-0.59375 -1.75,-0.78125 c 0,0 -3.2499,-2.50008 -3.625,-3 -0.37508,-0.49991 -1.59375,-1 -1.59375,-1 l -1.75,-1.875 c 0,0 -1.78113,-1.21885 -2.28125,-1.84375 -0.50014,-0.6249 -2,-1.40625 -2,-1.40625 l -2.5,-1.71875 -2.375,-2.65625 -2.25,-2.34375 -2.375,-1.78125 -4,-2 L 371.3125,12.5 369.90625,10.84375 c 0,0 -2.96863,0.03122 -3.46875,-0.09375 -0.50012,-0.12498 -2.15613,1.50004 -2.65625,1.75 -0.50012,0.24996 -3.24984,0.09371 -3.875,-0.15625 -0.62516,-0.24996 -2.12481,-4e-5 -2.875,-0.25 -0.75018,-0.24996 -1.12487,-0.84379 -1.625,-1.09375 -0.50013,-0.24996 -1.71875,-1.75 -1.71875,-1.75 l -3.65625,-0.625 c 0,0 -2.49977,-0.62504 -3.375,-0.875 -0.87522,-0.24996 -2.12478,0.125 -3,0.125 -0.87522,0 -1.99985,0.37505 -2.625,0.625 -0.62516,0.24996 -2.49988,1.21882 -3,1.59375 -0.50013,0.37494 -2.87487,1.25004 -3.375,1.5 -0.50013,0.24996 -3.15609,1.53132 -3.78125,1.90625 -0.62514,0.37494 -1.59375,1.21875 -1.59375,1.21875 0,0 -2.37486,0.62506 -2.875,1 -0.50012,0.37494 -2.49968,1.25016 -3.75,2.25 -1.25031,0.99983 -2.65603,0.65629 -3.53125,0.90625 -0.87522,0.24996 -2.34359,0.50002 -2.96875,0.625 -0.62515,0.12498 -1.62455,0.50012 -3.375,1.25 -1.75043,0.74987 -2.90625,0.84375 -2.90625,0.84375 0,0 -2.09363,1.12507 -2.59375,1.5 -0.50013,0.37494 -2.375,0.90625 -2.375,0.90625 0,0 -1.78102,0.62508 -2.65625,1.125 -0.87522,0.49992 -2.34363,0.37502 -2.84375,0.5 -0.50013,0.12498 -3.875,1.25 -3.875,1.25 0,0 -3.12486,-0.15625 -3.625,-0.15625 -0.50011,0 -1.90625,-1.75 -1.90625,-1.75 0,0 -1.37481,-0.84366 -2.125,-0.34375 -0.75018,0.49992 -1.99982,0.25004 -2.75,0.5 -0.7502,0.24996 -4.53125,1.8125 -4.53125,1.8125 l -4.78125,2.46875 c 0,0 -3.02214,1.94926 -3.90625,2.65625 -0.88411,0.70699 -1.9375,2.28125 -1.9375,2.28125 l -5.84375,3.5625 -3.03125,-1.96875 -4.21875,-2.3125 -4.25,-2.96875 -2.28125,-2.15625 -2.125,-2.8125 -4.25,-2.125 -3.90625,-1.75 -3.53125,-0.34375 -4.0625,-0.53125 L 228.9375,18.625 224.5,15.8125 220.8125,13.5 l -3.53125,-1.9375 -4.40625,0 -2.6875,0.375 -3.34375,2.96875 -3.375,2.8125 -3.1875,2.6875 c 0,0 -3.51146,1.59375 -4.21875,1.59375 -0.70728,0 -3.03125,2.625 -3.03125,2.625 l -3,2.3125 -2.625,0 -2.6875,-1.40625 -2.8125,-0.5625 -1.9375,1.96875 -2.5,1.40625 -1.375,2.125 -2.875,1.78125 -1.375,-2.84375 -2.3125,-2.8125 -2.84375,-2.3125 -2.28125,-0.71875 -2.15625,1.25 -2.25,2.125 -3.40625,1.21875 -2.8125,1.78125 -2.84375,-1.4375 -2.625,-2.8125 -3.875,-3.03125 -3.03125,-1.5625 c 0,0 -2.82397,-0.17675 -3.53125,0 -0.70729,0.17674 -3,0.90625 -3,0.90625 l -3.5625,2.09375 -3.6875,2.65625 -5.5,-1.21875 -3.6875,0.875 -3.21875,3.53125 -4.03125,3.34375 -4.4375,4.09375 -5.125,5.125 -5.65625,5.46875 -5.125,3.1875 -6.5625,0.53125 -2.4375,1.78125 c 0,0 -3.23022,4.05276 -3.9375,4.40625 -0.7073,0.3535 -2.96875,1.0625 -2.96875,1.0625 l -4.96875,2.625 -3.875,5.65625 c 0,0 -3.04272,2.63575 -3.75,2.8125 -0.70728,0.17674 -4.03125,0.53125 -4.03125,0.53125 0,0 -5.8552,0.1875 -6.5625,0.1875 -0.70727,0 -4.78125,-0.1875 -4.78125,-0.1875 l -2.8125,-1.03125 -2.46875,-1.25 -5.6875,0 -5.46875,-0.875 -4.40625,-2.5 -3.90625,-2.28125 -3.6875,-2.3125 -5.125,-0.34375 L 10.03125,57.5 6.125,56.8125 0,55.21875 0,212.5 l 1400.0001,0 0,-169.8125 c -0.5501,-0.05721 -1.0969,-0.256454 -2.0626,-0.1875 -1.7505,0.12498 -1.7809,-0.03129 -2.4062,-0.15625 -0.6251,-0.12498 -2.3438,-1.5 -2.3438,-1.5 0,0 -0.8748,0.65641 -1.625,1.65625 -0.7501,0.99983 -2.9996,1.25012 -4.25,2 -1.2502,0.74988 -1.7496,0.09375 -3.125,0.09375 -1.3753,0 -4.125,-3.34375 -4.125,-3.34375 0,0 -1.7498,-2.03133 -2.25,-2.53125 -0.5001,-0.49992 -4.5312,-3 -4.5312,-3 l -1.8438,-0.59375 -3.2812,-2.53125 c 0,0 -5.9999,-1.34385 -6.625,-1.84375 -0.6252,-0.49992 -3,-1.375 -3,-1.375 0,0 -3.1248,0.96879 -4,1.21875 -0.8751,0.24995 -2.8746,-0.34383 -4,-0.84375 -1.1253,-0.49992 -2,-2.53125 -2,-2.53125 0,0 -2.8748,-0.99992 -4.5,-0.5 -1.6254,0.49992 -2.125,1.65625 -2.125,1.65625 l -4.375,3.625 c 0,0 -1.1246,0.3751 -2.75,1 -1.6254,0.6249 -2.2494,0.37507 -3.625,0.75 -1.3752,0.37494 -2.4997,-0.03126 -3.75,-0.40625 -1.2504,-0.37494 -1.8745,-0.25004 -3.75,-0.5 -1.8756,-0.24996 -1.8748,0.15629 -2.375,0.40625 -0.5002,0.24996 -1.3748,1.00014 -2.375,1.875 -1.0004,0.87486 -1.156,0.75 -2.0312,0.75 -0.8752,0 -2.4688,-2.03125 -2.4688,-2.03125 0,0 -0.9058,0.25004 -2.6562,0.5 -1.7506,0.24996 -1.5934,1.03133 -2.8438,1.53125 -1.2502,0.49992 -2.1249,0.25004 -2.875,0.5 -0.7503,0.24996 -2.875,2.59375 -2.875,2.59375 0,0 -1.406,3.53151 -2.4062,5.03125 -1.0001,1.49976 -1.125,1.71899 -1.75,3.21875 -0.6251,1.49975 -0.9685,1.37528 -2.4688,3 -1.5006,1.62473 -0.281,1.28138 -0.6562,2.03125 -0.375,0.74988 -1.8436,0.12498 -2.3438,0 -0.5001,-0.12498 -2.5312,-1.40629 -3.0312,-1.65625 -0.5004,-0.24996 -2.5,-0.71875 -2.5,-0.71875 l -1.7188,0.96875 -3.25,1.75 c 0,0 -1.6248,1.37506 -2.25,1.75 -0.6251,0.37492 -2.7812,0.75 -2.7812,0.75 l -2.25,0.25 -2.125,-0.09375 -2.5,-0.90625 c 0,0 -2.0937,-0.96877 -2.7188,-1.09375 -0.6251,-0.12498 -1,-1.5 -1,-1.5 l -3.1562,-1.53125 -3.125,-0.59375 c 0,0 -2.4998,-0.50009 -3.625,-1 -1.1252,-0.49992 -0.75,-1.75 -0.75,-1.75 l -3.3438,-1.40625 c 0,0 -1.7496,-0.96883 -2.125,-1.46875 -0.3749,-0.49998 -1.75,-1.25 -1.75,-1.25 l -2.5312,-1.40625 -2.5,-1.21875 c 0,0 -3.875,-1.40633 -4.375,-1.90625 -0.5001,-0.49992 -2.2498,-0.75004 -3.125,-1 -0.8751,-0.24995 -2.3747,-0.59387 -3.75,-1.34375 -1.3754,-0.74988 -1.4999,-0.87506 -2.25,-1.25 -0.7502,-0.37494 -2.8749,-0.12498 -3.375,0 -0.5002,0.12498 -2.5,-1.125 -2.5,-1.125 0,0 -0.4997,-0.62518 -1.75,-1.75 -1.2502,-1.12481 -2.1251,-1.25008 -2.625,-1.75 -0.5002,-0.49992 -3.625,-0.875 -3.625,-0.875 0,0 -3.8749,-0.50004 -4.875,-0.75 -1.0002,-0.24996 -2.4999,-0.90629 -3.75,-1.15625 -1.2504,-0.24996 -3.625,-0.75 -3.625,-0.75 0,0 -0.6247,0.28135 -1.875,0.90625 -1.2503,0.62489 -1.125,1.1251 -1.5,1.75 -0.3752,0.62489 -0.6249,1.0001 -1.25,1.625 -0.6252,0.62488 -1.3743,0.84391 -3.75,1.84375 -2.3757,0.99984 -2.7813,0.65625 -2.7813,0.65625 0,0 -1.8436,0.6251 -3.0937,1.25 -1.2503,0.6249 -1.6561,0.75007 -2.2813,1.125 -0.6251,0.37494 -1.4686,0.25008 -2.3437,0.75 -0.8753,0.49991 -2.25,1.34375 -2.25,1.34375 l -1.2813,1.65625 -1.8437,1.96875 c 0,0 -2.0311,1.50004 -3.0313,1.75 -1.0003,0.24996 -0.8433,-0.09384 -2.3437,-0.59375 -1.5003,-0.49992 -2.2499,-0.50004 -3.125,-0.75 -0.8753,-0.24996 -3,-0.40625 -3,-0.40625 0,0 -3.4997,0.53131 -4.875,0.90625 -1.3752,0.37494 -1.7498,0.21877 -2.625,0.34375 -0.8752,0.12497 -3.25,-0.34375 -3.25,-0.34375 0,0 -3,-0.50004 -3.625,-0.75 -0.6252,-0.24996 -1.1563,-1.625 -1.1563,-1.625 0,0 -3.9687,-1.62506 -4.4687,-2 -0.5001,-0.37494 -2.6563,-0.75 -2.6563,-0.75 0,0 -3.1248,-2.00004 -3.625,-2.25 -0.5001,-0.24996 -3.125,-1.78125 -3.125,-1.78125 0,0 -2.2499,-2.84381 -2.75,-3.21875 -0.5003,-0.37494 -3.875,-2.75 -3.875,-2.75 l -4.625,-2.5 c 0,0 -4.7497,0.59375 -5.375,0.59375 -0.6251,0 -3,0.90625 -3,0.90625 l -5.9687,-1.625 c 0,0 -2.75,0.37498 -3.375,0.25 -0.6252,-0.12498 -2.1564,0.87509 -2.5313,1.375 -0.3751,0.49992 -1.2499,1.21882 -1.75,1.59375 -0.5001,0.37494 -2.75,1.15625 -2.75,1.15625 l -3.375,-0.15625 -3.375,-2.34375 -3.25,-0.25 c 0,0 -1.7498,-2.15639 -2.5,-3.03125 -0.7503,-0.87485 -1.2498,-1.2189 -1.875,-2.09375 -0.6252,-0.87486 -1,-1.625 -1,-1.625 l -2.875,-2.15625 c 0,0 -2.4684,-1.09375 -3.0937,-1.09375 -0.6251,0 -1.0309,0.59391 -2.2813,1.59375 -1.2503,0.99983 -0.9998,0.7815 -2.5,2.28125 -1.5006,1.49976 -0.875,1.6251 -1,2.25 -0.1249,0.6249 -2.25,1.625 -2.25,1.625 0,0 -2.1248,-0.62509 -3,-1.125 -0.8752,-0.49992 -2.625,-0.65625 -2.625,-0.65625 l -2,1.25 -1.7813,1.53125 c 0,0 -2.0936,1.09391 -2.3437,2.09375 -0.2501,0.99983 -1.625,1.15625 -1.625,1.15625 l -3.125,-0.15625 c 0,0 -1.2497,0.12498 -3,0 -1.7506,-0.12498 -2.9999,-0.25 -3.5,-0.25 -0.5002,0 -0.6247,0.40633 -1.375,0.90625 -0.7503,0.49992 -1.5,1.375 -1.5,1.375 0,0 -0.9999,1.12514 -1.5,2 -0.5003,0.87486 -1.3748,0.96877 -2.5,1.09375 -1.1252,0.12498 -2.2495,-0.34383 -3.375,-0.84375 -1.1252,-0.49992 -1.2495,-0.40629 -2.875,-0.65625 -1.6254,-0.24996 -1.6563,0.5 -1.6563,0.5 l -1.75,1.5 c 0,0 -1.4684,2.25015 -2.2187,3.125 -0.7502,0.87486 -1.4063,1.40625 -1.4063,1.40625 0,0 -0.9684,-4e-5 -1.8437,-0.25 -0.8752,-0.24996 -1.7813,0 -1.7813,0 0,0 -2.9687,-1.03132 -3.0937,-1.40625 -0.125,-0.37494 -2.0314,-1.5001 -2.5314,-2.125 -0.5,-0.6249 -1.8437,-1.84375 -1.8437,-1.84375 0,0 -2.7496,-2.12508 -3.625,-2.625 -0.8751,-0.49992 -2.6248,-1.28131 -3.25,-1.65625 -0.6252,-0.37494 -2.0313,-2 -2.0313,-2 L 1007.9374,23 c -0.625,-0.62489 -2.2185,-1.65634 -2.7187,-2.15625 -0.5,-0.49992 -2.1561,-1.09377 -2.6563,-1.21875 -0.5,-0.12498 -2.62495,-2.65625 -2.62495,-2.65625 0,0 -2.9995,-2.09383 -4.375,-2.59375 -1.3752,-0.49992 -1.9996,-1.90631 -2.75,-2.28125 -0.75,-0.37494 -3,-1.09375 -3,-1.09375 l -2.4687,-2.375 -2.2813,-2.75 -2,0.25 c 0,0 -1.1245,1.12523 -2.5,2.5 -1.3752,1.37478 -0.8749,1.25014 -1.5,2.125 -0.6251,0.87486 -1.1245,1.50021 -2.625,2.75 -1.5002,1.2498 -1.1249,1.46883 -1.5,1.96875 -0.3751,0.49992 -1.3746,0.65625 -2.5,0.65625 -1.1252,0 -2.9687,-0.40625 -2.9687,-0.40625 0,0 -3.4061,-1.09379 -4.0313,-1.34375 -0.6252,-0.24996 -1.75,-0.87504 -2.5,-1.125 -0.7503,-0.24995 -1.5,-1.75 -1.5,-1.75 l -2,-0.5 c 0,0 -2.1247,1.87507 -2.625,2.25 -0.5001,0.37494 -2.125,2.625 -2.125,2.625 0,0 -1.2811,1.34379 -2.1562,1.59375 -0.8753,0.24996 -2.0937,0.65625 -2.9688,0.65625 -0.8752,0 -4.75,1.71875 -4.75,1.71875 l -4.0312,1.40625 -2.7188,1.34375 c 0,0 -1.4996,0.74992 -3.5,0.25 -2.0007,-0.49991 -2.1245,-0.71894 -4.125,-1.84375 -2.0007,-1.12482 -1.875,-1.5 -1.875,-1.5 0,0 -1.5,-0.125 -2.5,-0.125 -1.0003,0 -1.2811,0.25006 -2.1562,0.625 -0.8752,0.37494 -1.0935,1.46889 -1.8438,2.34375 -0.7502,0.87485 -3.0312,1.90625 -3.0312,1.90625 l -0.5938,1.71875 c 0,0 -2.531,-4e-5 -3.0312,-0.25 -0.5,-0.24996 -1.5,-1.34375 -1.5,-1.34375 0,0 -1.625,-1.75014 -2,-2.625 -0.3751,-0.87485 -0.844,-1.62511 -1.0938,-2.25 -0.2501,-0.6249 -1.4999,-1.12504 -2.125,-1.375 -0.6251,-0.24995 -1.906,0.12498 -2.9062,0 -1.0003,-0.12498 -0.9998,0.75013 -1.875,1.5 -0.8752,0.74988 -0.3436,1.96883 -0.8438,2.46875 -0.5001,0.49992 -0.4999,1.40639 -1.5,2.28125 -1.0002,0.87485 -2.7812,3.59375 -2.7812,3.59375 0,0 -2.25,2.87509 -2.25,3.375 0,0.49992 -0.4997,1.78127 -1.5,1.90625 -1.0001,0.12498 -1.875,-0.15625 -1.875,-0.15625 l -1.8438,-1.34375 -1.1562,-1 c 0,0 -2.2499,-1.53133 -2.875,-2.03125 -0.6251,-0.49992 -3.3438,-1.5 -3.3438,-1.5 l -2.2812,0.40625 -1.8438,2.125 -1.75,0.25 -2.375,-1.78125 -0.6562,-1.34375 -2.625,-1.90625 c 0,0 -1.7182,-1.00006 -3.0938,-1.375 C 867.93725,23.21881 866.90625,22 866.90625,22 l -2.9688,-0.15625 c 0,0 -1.7811,4e-5 -2.4062,0.25 -0.6253,0.24996 -1.6247,0.37507 -2.375,0.75 -0.7502,0.37494 -1.25,1.53125 -1.25,1.53125 0,0 -2.1247,1.12498 -3,1 -0.8751,-0.12498 -1.7188,-0.40625 -1.7188,-0.40625 l -2.6562,-1.625 c 0,0 -2.8437,-1.21877 -3.4688,-1.34375 l -3.1562,-0.65625 c 0,0 -2.1251,-0.50004 -2.625,-0.75 -0.5002,-0.24996 -2.5,-1.59375 -2.5,-1.59375 l -1.875,-1.53125 -3.125,-1.25 -3.8438,-2.09375 -1.4062,-1.28125 -2.125,-1.75 c 0,0 0.25,-1.84387 0.25,-2.59375 0,-0.74987 -0.875,-1.625 -0.875,-1.625 0,0 -1.8748,-0.75004 -2.375,-1 -0.5002,-0.24996 -1.6247,-0.87502 -2.25,-1 -0.625,-0.12498 -2.7812,-0.75 -2.7812,-0.75 0,0 -1.0935,-1.37506 -1.8438,-1.75 -0.7502,-0.37494 -2.5,-1.28125 -2.5,-1.28125 l -3,-0.84375 c 0,0 -1.9997,-0.25 -3,-0.25 z"
     id="rect5222"
     inkscape:export-xdpi="90"
     inkscape:export-ydpi="90"
     inkscape:connector-curvature="0" />
</svg>
