<?xml version="1.0" encoding="UTF-8" standalone="no"?>
<!-- Created with Inkscape (http://www.inkscape.org/) -->

<svg
   xmlns:dc="http://purl.org/dc/elements/1.1/"
   xmlns:cc="http://creativecommons.org/ns#"
   xmlns:rdf="http://www.w3.org/1999/02/22-rdf-syntax-ns#"
   xmlns:svg="http://www.w3.org/2000/svg"
   xmlns="http://www.w3.org/2000/svg"
   xmlns:sodipodi="http://sodipodi.sourceforge.net/DTD/sodipodi-0.dtd"
   xmlns:inkscape="http://www.inkscape.org/namespaces/inkscape"
   id="svg2985"
   version="1.1"
   inkscape:version="0.48.5 r10040"
   width="2400"
   height="212.50656"
   sodipodi:docname="tatry_ink.svg"
   inkscape:export-filename="C:\Users\chuchmaczm\Desktop\bitmap3.png"
   inkscape:export-xdpi="90"
   inkscape:export-ydpi="90">
  <metadata
     id="metadata2991">
    <rdf:RDF>
      <cc:Work
         rdf:about="">
        <dc:format>image/svg+xml</dc:format>
        <dc:type
           rdf:resource="http://purl.org/dc/dcmitype/StillImage" />
        <dc:title />
      </cc:Work>
    </rdf:RDF>
  </metadata>
  <defs
     id="defs2989">
    <inkscape:path-effect
       effect="spiro"
       id="path-effect3802"
       is_visible="true" />
    <inkscape:path-effect
       effect="spiro"
       id="path-effect3798"
       is_visible="true" />
  </defs>
  <sodipodi:namedview
     pagecolor="#ffffff"
     bordercolor="#666666"
     borderopacity="1"
     objecttolerance="10"
     gridtolerance="10"
     guidetolerance="10"
     inkscape:pageopacity="0"
     inkscape:pageshadow="2"
     inkscape:window-width="2194"
     inkscape:window-height="1171"
     id="namedview2987"
     showgrid="false"
     inkscape:zoom="0.55840651"
     inkscape:cx="1496.4354"
     inkscape:cy="-405.79023"
     inkscape:window-x="-8"
     inkscape:window-y="-8"
     inkscape:window-maximized="1"
     inkscape:current-layer="svg2985"
     fit-margin-top="0"
     fit-margin-left="0"
     fit-margin-right="0"
     fit-margin-bottom="0" />
  <path
     style="fill:#303c46;fill-opacity:1;stroke:none"
     d="m 1218.9951,0 c -1.0003,0 -1.4954,1.24564 -1.4954,1.24564 l -1.3886,1.24564 -3.2401,1.88626 -1.7445,-0.24913 -2.3856,0.49826 c 0,0 -3.8791,2.22394 -4.3794,2.34892 -0.5001,0.12498 -2.2404,3.75265 -2.9908,4.37755 -0.7501,0.62489 -9.5063,9.89395 -9.5063,9.89395 0,0 -2.8783,4.23187 -4.6286,5.2317 -1.7505,0.99984 -1.7446,-1.24564 -1.7446,-1.24564 0,0 -1.6361,-0.85415 -2.1362,-0.85415 -0.5001,0 -1.9916,0.74655 -2.7416,0.99651 -0.7503,0.24996 -1.9924,1.4749 -2.4924,2.0998 -0.5001,0.62489 -2.8814,3.02347 -3.6317,3.52338 -0.7502,0.49991 -2.1313,0.62241 -3.6316,0.74739 -1.5005,0.12498 -1.8838,-0.37411 -2.884,-0.24913 -1.0001,0.12498 -2.4924,1.24564 -2.4924,1.24564 0,0 -2.1338,0.86989 -2.8839,1.49477 -0.7503,0.6249 -3.4875,0.88892 -3.9877,1.13888 -0.5002,0.24996 -4.251,1.61642 -5.3764,2.49128 -1.1253,0.87486 -4.0232,0.85416 -4.0232,0.85416 l -6.9786,0.14235 -4.2725,0.49826 -3.3468,-0.99651 -2.1363,-1.49477 c 0,0 -2.7399,-1.26219 -3.24,-1.63713 -0.5002,-0.37494 -2.7747,-10e-4 -3.5249,0.49825 -0.7502,0.49992 -1.8514,2.98955 -1.8514,2.98955 0,0 -5.1246,2.15359 -5.8748,2.02861 -0.7502,-0.12498 -6.1596,0.10672 -6.1596,0.10672 l -5.9816,0.39148 c 0,0 -4.1268,0.12415 -5.127,0.24913 -1.0003,0.12498 -2.4882,-0.14236 -3.7385,-0.14236 -1.2503,0 -2.1363,-1.10328 -2.1363,-1.10328 l -3.4892,-2.38452 -4.3794,-1.38794 c 0,0 -1.7777,0.49826 -2.5279,0.49826 -0.7502,0 -3.6284,-0.99652 -4.6286,-0.99652 -1.0003,0 -3.3469,-0.49825 -3.3469,-0.49825 l -2.8839,0 -1.9939,-1.24565 -1.6378,-0.74738 c 0,0 -1.8672,-0.14236 -2.4923,-0.14236 -0.6252,0 -1.8871,-1.10328 -1.8871,-1.10328 0,0 -1.6361,-0.99569 -2.1362,-1.24565 -0.5002,-0.24995 -2.0982,-1.51132 -2.8484,-1.88625 -0.7502,-0.37494 -1.9939,-1.38801 -1.9939,-1.38801 0,0 -3.3783,-3.36282 -4.6286,-3.48779 -1.2503,-0.12498 -2.2787,-0.88975 -2.2787,-0.88975 0,0 -2.3482,0.12415 -2.8483,0.24913 -0.5002,0.12498 -2.528,0.28472 -2.528,0.28472 l -2.2431,0.49826 c 0,0 -3.63,-0.49826 -4.1301,-0.49826 -0.5001,0 -1.9939,-2.13539 -1.9939,-2.13539 l -2.4923,-2.24215 -1.3886,0.24912 -2.8839,0.10677 c 0,0 -2.4725,-1.49394 -3.0976,-1.7439 -0.6252,-0.24995 -1.3869,-0.49825 -1.8871,-0.49825 -0.5001,0 -1.4954,1.13887 -1.4954,1.13887 l -1.9938,2.49128 -2.528,1.99303 -2.1006,2.63365 -1.8871,1.85066 c 0,0 -1.1377,1.5287 -1.6378,2.02862 -0.5001,0.49992 -2.489,1.24482 -3.4892,1.49477 -1.0003,0.24996 -1.6337,-0.49825 -2.884,-0.49825 -1.2503,0 -3.1299,-1.13805 -4.1301,-1.38801 -1.0003,-0.24995 -1.9906,-0.1076 -2.9908,0.14236 -1.0003,0.24996 -3.48933,-1.13887 -3.48933,-1.13887 0,0 -2.0071,-0.88891 -3.3824,-1.13887 -1.3754,-0.24996 -1.8672,-0.97831 -2.4924,-1.10329 -0.6251,-0.12497 -1.6378,0.49826 -1.6378,0.49826 l -1.3886,1.7439 c 0,0 -1.8646,0.3559 -3.24,0.3559 -1.3753,0 -2.3822,-1.12067 -3.3824,-1.24564 -1.0003,-0.12498 -2.1007,-0.10677 -2.1007,-0.10677 l -4.771,-0.64062 c 0,0 -1.6171,-0.3559 -2.4923,-0.3559 -0.8753,0 -2.6348,0.10677 -2.6348,0.10677 l -1.9938,0.99652 c 0,0 -1.1377,1.65367 -1.6378,2.02861 -0.5002,0.37494 -1.7447,1.7439 -1.7447,1.7439 l -3.24,1.24564 -1.3886,1.10329 -1.8514,2.02861 -2.27867,2.49129 c 0,0 -1.4764,1.38635 -1.85144,1.88626 -0.3751,0.49992 -2.25883,1.35158 -2.88398,1.60154 -0.62516,0.24996 -2.88397,-0.24913 -2.88397,-0.24913 0,0 -2.86409,0.26734 -3.48926,0.14236 -0.62516,-0.12498 -2.88396,-0.14236 -2.88396,-0.14236 l -2.24309,-0.74739 c 0,0 -1.36787,-0.389 -2.24309,-1.13887 -0.87522,-0.74988 -1.90278,-0.72834 -2.52794,-1.10328 -0.62516,-0.37494 -1.74463,-1.24564 -1.74463,-1.24564 l -2.49232,-1.49478 -1.49539,-1.53036 -2.38551,-1.49477 -2.63474,-2.24215 c 0,0 -3.09677,-1.8846 -3.34684,-2.38452 -0.25006,-0.49991 -2.27869,-1.35241 -2.27869,-1.35241 0,0 -1.74213,-0.49743 -2.49232,-0.74738 -0.75018,-0.24996 -1.88455,-0.74656 -2.63475,-0.99652 -0.75017,-0.24996 -1.99218,-0.62157 -2.49232,-0.99651 -0.50012,-0.37494 -3.25491,0.37411 -4.13013,0.24913 -0.87521,-0.12498 -1.85144,0.85415 -1.85144,0.85415 0,0 -2.63308,0.12498 -3.1332,0 -0.50013,-0.12498 -2.00876,0.49743 -2.88398,0.74739 -0.87523,0.24996 -2.489,0.63978 -3.48925,0.88974 -1.00025,0.24996 -2.39792,0.49494 -4.02332,1.49477 -1.62542,0.99984 -2.74156,0.49826 -2.74156,0.49826 l -1.99386,1.99303 c -0.50012,0.4999 -2.13627,1.388 -2.13627,1.388 l -1.74463,1.60154 -3.1332,2.776 -2.10067,2.24216 -1.88705,2.13538 -2.3855,0.49826 -1.74463,0.10671 -3.13321,-1.35241 -2.74155,-1.53036 -0.39165,0.64062 -0.85452,1.63713 -1.49538,0.35589 c 0,0 -0.88764,-0.23008 -1.63782,-0.60502 -0.7502,-0.37494 -1.24616,-1.388 -1.24616,-1.388 l -1.74463,-1.63713 -2.38551,-1.24565 -0.85451,0.88975 -2.02946,1.7439 -1.49539,-1.63713 c 0,0 -0.85368,-1.49311 -1.10375,-1.99303 -0.25007,-0.49992 -1.13934,-1.99303 -1.13934,-1.99303 l -0.24923,-1.24558 -1.24617,-1.49477 -2.63474,-3.02513 -1.63781,-0.74739 c 0,0 -2.59748,-0.49743 -3.09761,-0.74738 -0.50012,-0.24996 -2.52792,-0.3559 -2.52792,-0.3559 0,0 -1.74297,0.72834 -2.24309,1.10328 -0.50013,0.37494 -2.88398,1.24564 -2.88398,1.24564 0,0 -1.61793,2.15111 -2.24309,2.77601 -0.62515,0.62488 -3.38243,1.24564 -3.38243,1.24564 l -2.59914,1.10328 -2.13628,-2.24216 c 0,0 -1.3687,-0.25161 -1.99385,0.49826 -0.62516,0.74988 -2.4004,1.86722 -3.27563,2.24216 -0.87521,0.37493 -2.59913,2.13538 -2.59913,2.13538 l -2.77717,-0.60502 -1.74462,-0.78298 c 0,0 -3.25658,-2.48962 -3.63168,-2.98954 -0.37508,-0.49991 -1.6022,-0.99651 -1.6022,-0.99651 l -1.74462,-1.88626 c 0,0 -1.77857,-1.22577 -2.27869,-1.85067 -0.50014,-0.6249 -1.99386,-1.388 -1.99386,-1.388 l -2.49234,-1.7439 -2.3855,-2.63364 -2.24309,-2.34893 -2.38551,-1.77949 -3.98772,-1.99302 -2.99078,-2.24216 -1.38858,-1.63713 c 0,0 -2.98914,0.0182 -3.48926,-0.10677 -0.50012,-0.12498 -2.13461,1.49394 -2.63473,1.7439 -0.50012,0.24996 -3.25575,0.1076 -3.88091,-0.14236 -0.62516,-0.24996 -2.13379,8.3e-4 -2.88398,-0.24913 -0.75018,-0.24996 -1.10207,-0.85332 -1.6022,-1.10328 -0.50013,-0.24996 -1.74462,-1.7439 -1.74462,-1.7439 l -3.63168,-0.64062 c 0,0 -2.50721,-0.60419 -3.38244,-0.85415 -0.87522,-0.24996 -2.11556,0.10677 -2.99078,0.10677 -0.87522,0 -2.00959,0.39066 -2.63474,0.64061 -0.62516,0.24996 -2.49067,1.22661 -2.99079,1.60154 -0.50013,0.37494 -2.88231,1.24481 -3.38244,1.49477 -0.50013,0.24996 -3.14893,1.51133 -3.77409,1.88626 -0.62514,0.37494 -1.6022,1.24565 -1.6022,1.24565 0,0 -2.38384,0.62157 -2.88398,0.99651 -0.50012,0.37494 -2.48816,1.24232 -3.73848,2.24216 -1.25031,0.99983 -2.64963,0.63978 -3.52485,0.88974 -0.87522,0.24996 -2.36564,0.51564 -2.9908,0.64062 -0.62515,0.12498 -1.63199,0.49576 -3.38244,1.24564 -1.75043,0.74987 -2.88397,0.85415 -2.88397,0.85415 0,0 -2.09901,1.11984 -2.59913,1.49477 -0.50013,0.37494 -2.38551,0.88975 -2.38551,0.88975 0,0 -1.75952,0.63895 -2.63475,1.13887 -0.87522,0.49992 -2.34824,0.37328 -2.84836,0.49826 -0.50013,0.12498 -3.88091,1.24564 -3.88091,1.24564 0,0 -3.13153,-0.14236 -3.63167,-0.14236 -0.50011,0 -1.88704,-1.7439 -1.88704,-1.7439 0,0 -1.38609,-0.85581 -2.13628,-0.3559 -0.75018,0.49992 -1.99137,0.2483 -2.74155,0.49826 -0.7502,0.24996 -4.55739,1.81508 -4.55739,1.81508 l -4.77101,2.45569 c 0,0 -3.03241,1.96225 -3.91652,2.66924 -0.88411,0.70699 -1.92264,2.27774 -1.92264,2.27774 l -5.83917,3.55898 -3.02638,-1.95744 -4.23695,-2.31333 -4.23695,-2.98954 -2.2787,-2.13539 -2.13627,-2.81159 -4.23695,-2.13539 -3.91651,-1.7439 -3.52485,-0.3559 -4.05892,-0.53384 -3.52486,-2.31334 -4.45058,-2.81159 -3.70289,-2.31334 -3.52485,-1.92184 -4.41497,0 -2.67035,0.35589 -3.34683,2.98954 -3.38244,2.8116 -3.16881,2.66923 c 0,0 -3.52966,1.60154 -4.23695,1.60154 -0.70728,0 -3.02639,2.63364 -3.02639,2.63364 l -2.99079,2.31334 -2.63473,0 -2.67035,-1.42359 -2.81277,-0.53385 -1.95826,1.95744 -2.49232,1.388 -1.38858,2.13539 -2.84837,1.77949 -1.38857,-2.84719 -2.3143,-2.81159 -2.84837,-2.31333 -2.2787,-0.7118 -2.13627,1.24564 -2.2787,2.13539 -3.38244,1.21005 -2.81276,1.77949 -2.84837,-1.42359 -2.63474,-2.81159 -3.8809,-3.02513 -3.02639,-1.56595 c 0,0 -2.81758,-0.17675 -3.52486,0 -0.70729,0.17674 -2.99078,0.88974 -2.99078,0.88974 l -3.56047,2.0998 -3.70288,2.66923 -5.48311,-1.24564 -3.70288,0.88974 -3.20441,3.52339 -4.05893,3.34544 -4.41497,4.09282 -5.12707,5.12493 -5.66113,5.48083 -5.12706,3.16749 -6.55125,0.53384 -2.45672,1.77949 c 0,0 -3.20922,4.05964 -3.9165,4.41313 -0.7073,0.3535 -2.9908,1.0677 -2.9908,1.0677 l -4.94904,2.63364 -3.8809,5.65878 c 0,0 -3.0312,2.63484 -3.73848,2.81159 -0.70728,0.17674 -4.05893,0.53385 -4.05893,0.53385 0,0 -5.84395,0.17794 -6.55125,0.17794 -0.70727,0 -4.77101,-0.17794 -4.77101,-0.17794 l -2.81277,-1.03211 -2.49232,-1.24564 -5.66113,0 -5.48312,-0.88974 -4.41496,-2.49129 -3.8809,-2.27775 -3.70289,-2.31333 -5.12706,-0.3559 -3.38244,-2.45569 -3.8809,-0.7118 -6.19521,-1.60154 -4.41496,0.7118 -4.23695,1.42359 -3.52486,2.09979 -3.73849,3.20308 -3.16881,2.8116 -3.70287,3.73692 -4.27255,3.52339 -4.23695,2.4557 -6.33762,2.31333 -5.66114,2.13539 -5.30508,3.87928 -7.44138,2.8116 -5.4831,1.24564 -4.05893,0 -3.70288,0 -6.72927,1.77949 -4.94904,-0.3559 -3.20441,1.06769 -3.70288,0.67621 -3.70288,2.31334 -4.23695,1.24564 -3.20442,1.92185 -3.70288,0.53384 -4.77102,1.24564 -4.77101,-0.35589 -2.49232,1.24564 -4.94904,0.3559 -2.63475,1.42359 -5.12706,0.85415 -5.30508,1.0677 -2.67035,1.06769 -3.34683,0 -1.24617,-1.06769 -2.63474,-1.92185 -3.20442,-2.31334 -2.10066,-0.71179 -7.26335,-0.88975 -0.89012,-1.388 -0.17801,-2.49128 -1.92265,-2.63365 -1.42419,0 -3.02639,1.7439 -4.77102,1.0677 -5.66113,-0.7118 -3.70288,-2.27775 -3.52485,-0.35589 -3.38245,-1.77949 -6.33762,-2.98954 c 0,0 -4.59779,-3.02514 -5.30508,-3.02514 -0.70729,0 -6.9073,-3.87928 -6.9073,-3.87928 l -3.1688,-1.42359 -6.01719,-0.53385 -2.31429,-0.53385 -3.34684,-1.21005 -3.73848,-2.66923 -3.52486,-1.77949 -4.41497,-4.05723 -1.95825,-0.88975 -3.70289,-0.53385 -2.99078,-1.388 -1.95826,-1.60154 -3.34683,-1.24564 -4.59299,0.53385 -2.13629,0.71179 -4.05892,0.88975 -0.89012,0.71179 -3.34683,2.0998 -2.3143,2.13539 -3.34683,2.81159 -4.09453,2.49128 -6.51564,2.63365 -4.27255,1.95743 -5.80356,1.95744 -8.68753,4.05724 -3.52485,2.81159 -2.3143,-1.21005 -2.99079,-5.48083 -1.6022,0 -1.74463,0 -1.60221,1.0321 -1.24616,0.53385 -3.16881,1.77949 -2.67035,0 -4.59299,0.3559 -2.45672,0.88974 -3.73849,0.53385 -2.81276,0.17795 -1.95825,-0.53385 -2.81277,-1.42359 -2.3143,-0.17795 -6.90729,1.77949 -4.41497,0.3559 -3.70288,1.21005 -5.4831,1.24564 -5.66114,1.77949 -5.12706,3.52339 -1.95826,-0.53385 -3.70288,-2.45569 -5.30508,-1.06769 -2.45672,0.88974 -12.74645,0.3559 -4.05893,1.21005 -0.45028,0.27214 0.65406,-0.28346 L 0.32959,96.5959 0,212.50656 l 2400,0 0,-106.91169 -0.9969,0 c -0.5251,-0.72639 -2.5142,-3.51994 -2.9551,-3.63016 -0.5003,-0.12498 -7.0142,-4.37754 -7.0142,-4.37754 l -3.7386,-1.10329 -4.1301,-1.63713 -3.4891,-2.88277 c 0,0 -2.6323,-2.73958 -3.3825,-2.98954 -0.7503,-0.24996 -1.7413,-1.86555 -2.7415,-2.74041 -1.0003,-0.87486 -2.8841,-1.24564 -2.8841,-1.24564 l -4.1301,-3.1319 -1.3885,-0.99652 -2.884,-3.4878 -5.9816,-3.63015 -3.6317,-2.88278 -4.6285,-3.38103 c 0,0 -4.6244,-1.01389 -5.8749,-1.13887 -1.2504,-0.12498 -2.1321,-0.12415 -3.3823,-0.24913 -1.2504,-0.12498 -3.3825,-1.35241 -3.3825,-1.35241 0,0 -4.3761,-1.6363 -5.3763,-1.88626 -1.0002,-0.24996 -3.8602,-1.49394 -4.7354,-1.7439 -0.8752,-0.24996 -4.3595,-1.76127 -4.9846,-1.88625 -0.6252,-0.12498 -4.1301,-0.60503 -4.1301,-0.60503 0,0 -4.0019,-0.0174 -5.1271,-0.14236 -1.1252,-0.12498 -3.8777,-0.12581 -4.8779,0.24913 -1.0002,0.37494 -4.5217,0.74738 -4.5217,0.74738 l -3.3826,0.88975 -1.7445,0.99651 -3.7386,1.49477 -3.2398,-0.49825 c 0,0 -3.6277,-1.24481 -4.8779,-1.49477 -1.2504,-0.24995 -2.8981,-1.38717 -4.0234,-1.63713 -1.1252,-0.24996 -4.4844,-1.60154 -4.9847,-1.60154 -0.5,0 -5.6254,-2.13539 -5.6254,-2.13539 l -3.3825,-0.99651 -4.7353,-0.39149 c 0,0 -6.2788,-8.3e-4 -7.9043,0.24913 -1.6254,0.24996 -4.0018,-0.10592 -5.1271,-0.3559 -1.1252,-0.24996 -2.0949,0.12332 -3.8453,0.49826 -1.7504,0.37492 -1.8837,0.48004 -2.884,0.60502 -1.0002,0.12498 -2.7572,1.13887 -3.3824,1.13887 -0.6252,0 -3.1432,-0.37577 -5.5187,0.24913 -2.3757,0.6249 -3.3742,0.24747 -5.8749,0.74739 -2.5005,0.49991 -1.7205,0.74489 -3.5959,1.49477 -1.8755,0.74988 -3.0232,0.26651 -4.0233,0.39149 -1.0002,0.12498 -1.619,0.99403 -1.9939,1.7439 -0.375,0.74988 -4.1301,0.64061 -4.1301,0.64061 l -2.3856,0.60503 -3.596,-0.60503 c 0,0 -2.6324,-1.88459 -3.3824,-2.38451 -0.7502,-0.49992 -2.8981,-2.25704 -4.0233,-3.1319 -1.1254,-0.87486 -1.3679,-1.11818 -2.2432,-1.99303 -0.8751,-0.87486 -2.7572,-1.38634 -3.3825,-1.88626 -0.6251,-0.49991 -2.7216,-1.88542 -3.3467,-2.13538 -0.6253,-0.24996 -3.8809,-2.24216 -3.8809,-2.24216 l -2.6348,-0.60503 c 0,0 -1.7587,-0.74407 -2.8839,-1.7439 -1.1252,-0.99984 -1.9939,-1.53036 -1.9939,-1.53036 l -9.1148,-5.97908 -2.7772,-1.7439 c 0,0 -4.2519,-2.75696 -5.1271,-3.1319 -0.8751,-0.37494 -4.9846,-3.38103 -4.9846,-3.38103 0,0 -2.7572,-1.51132 -3.3824,-1.88626 -0.6252,-0.37493 -1.7579,-0.97581 -3.1332,-1.85066 -1.3755,-0.87486 -2.3814,-1.63547 -3.6317,-2.13539 -1.2503,-0.49992 -2.1149,-0.88808 -3.2401,-1.388 -1.1252,-0.49992 -2.7365,-0.99569 -4.2369,-1.24564 -1.5003,-0.24996 -1.2429,0.14069 -2.243,0.64061 -1.0002,0.49992 -1.5252,2.25455 -3.2757,3.87929 -1.7504,1.62473 -1.2262,1.34909 -1.8513,2.34892 -0.6254,0.99984 -1.4012,0.88975 -3.0266,0.88975 -1.6255,0 -1.6136,0.62323 -3.4891,0.49825 -1.8754,-0.12497 -2.985,0.26734 -4.7355,0.14236 -1.7504,-0.12498 -1.0111,0.85167 -2.1361,1.60154 -1.1255,0.74988 -1.7415,1.37063 -2.7417,1.24565 -1.0002,-0.12498 -3.0239,-0.23092 -3.7741,-0.3559 -0.7501,-0.12498 -1.7446,0.10671 -1.7446,0.10671 l -4.3794,0.39149 -1.1038,0.3559 -1.1393,1.49477 c -0.3752,0.49992 -1.2435,1.01306 -1.9939,1.388 -0.7501,0.37494 -1.1194,1.36813 -1.7446,1.99302 -0.6251,0.6249 -1.2618,1.13638 -1.8869,1.88626 -0.6254,0.74987 -1.4931,1.51049 -2.2432,2.13539 -0.7502,0.6249 -1.632,1.36563 -3.3825,2.74041 -1.7503,1.37477 -1.6153,0.9957 -2.9908,1.24564 -1.3753,0.24996 -1.1508,0.14318 -3.0263,-0.10671 -1.8755,-0.24996 -1.1038,1.10329 -1.1038,1.10329 0,0 -1.6361,1.01306 -2.1363,1.388 -0.5001,0.37494 -2.7415,1.24564 -2.7415,1.24564 0,0 -2.152,0.99651 -2.7771,0.99651 -0.6252,0 -2.1164,-0.12331 -2.7416,-0.49825 -0.6252,-0.37494 -1.4937,-0.88892 -1.9939,-1.13888 -0.5001,-0.24995 -2.3855,0.24913 -2.3855,0.24913 l -4.3793,-1.35241 c 0,0 -1.7431,-1.24398 -2.2431,-1.7439 -0.5002,-0.49991 -1.8838,-1.02961 -2.884,-1.77949 -1.0005,-0.74988 -0.4986,-1.10328 -0.4986,-1.10328 l -1.7445,-0.49826 -3.1332,0 -1.9939,0 c 0,0 -2.4907,-0.49825 -2.9908,-0.49825 -0.5002,0 -2.1363,-0.14236 -2.1363,-0.14236 l -2.8483,-1.24565 c 0,0 -1.6527,-0.62075 -2.5279,-1.24564 -0.8753,-0.6249 -1.4756,-0.99402 -2.1007,-1.7439 -0.6251,-0.74988 -0.3899,-0.37079 -0.8901,-1.24564 -0.5002,-0.87486 -0.7435,-0.88725 -1.994,-1.63713 -1.2502,-0.74988 -2.1329,-0.76476 -3.1331,-0.88974 -1.0003,-0.12498 -0.3859,0.26567 -2.1363,0.64061 -1.7504,0.37494 -0.7469,0.88808 -0.9969,1.388 -0.2498,0.49992 -0.7443,0.8525 -1.7446,1.35241 -1.0003,0.49992 -1.261,0.49826 -2.1363,0.49826 -0.8752,0 -2.8483,0.24913 -2.8483,0.24913 0,0 -0.7551,0.51149 -3.8809,1.88626 -3.1258,1.37478 -2.152,0.74655 -2.7772,0.99651 -0.6253,0.24996 -2.3448,1.63465 -3.8454,2.38452 -1.5004,0.74988 -1.7595,0.72751 -2.6346,1.35241 -0.8752,0.6249 -2.4898,0.64061 -3.2401,0.64061 -0.7501,0 -1.5086,0.14236 -2.8839,0.14236 -1.3753,0 -2.1321,0.23175 -3.3825,0.10672 -1.2502,-0.12498 -2.1164,-0.26651 -2.7415,-0.39149 -0.6252,-0.12498 -1.757,-0.35424 -3.3824,-0.85416 -1.6254,-0.49992 -2.133,-0.62157 -3.1333,-0.99651 -1.0002,-0.37494 -1.9921,-0.88891 -2.4923,-1.13887 -0.5001,-0.24996 -2.2406,-0.62158 -2.9908,-0.99652 -0.7503,-0.37494 -2.152,-0.72917 -2.7771,-0.85415 -0.6252,-0.12498 -1.9939,-1.0321 -1.9939,-1.0321 l -1.887,-0.74739 -3.5961,-1.24564 c 0,0 -1.8854,-0.3559 -2.3855,-0.3559 -0.5003,0 -2.3856,-0.74739 -2.3856,-0.74739 l -3.7383,-0.88974 c 0,0 -1.7397,0.51564 -3.2401,0.64062 -1.5005,0.12498 -2.1347,0.49742 -2.6348,0.74738 -0.5002,0.24995 -2.1164,1.24481 -2.7416,1.49477 -0.6251,0.24996 -3.273,-0.24829 -4.0233,-0.49825 -0.75,-0.24996 -2.2554,-0.63979 -3.8808,-0.88975 -1.6255,-0.24995 -2.3473,0.26816 -3.0976,-0.10671 -0.7502,-0.37494 -1.887,-1.388 -1.887,-1.388 l -2.7416,-2.24216 c 0,0 -2.648,-0.49742 -4.0234,-0.74738 -1.3755,-0.24996 -1.8853,0.49825 -2.3855,0.49825 -0.5,0 -2.9891,0.62324 -3.4892,0.49826 -0.5001,-0.12498 -2.7415,-1.388 -2.7415,-1.388 0,0 -0.3669,1.24233 -2.4925,2.24215 -2.1254,0.99984 -1.8819,0.37411 -3.3824,0.24913 -1.5003,-0.12498 -1.3835,-0.85166 -2.8839,-1.60154 -1.5004,-0.74988 -2.2589,-0.14236 -2.884,-0.14236 -0.6251,0 -3.2401,-0.24912 -3.2401,-0.24912 l -2.8839,-1.35242 -3.6317,-0.99651 c 0,0 -2.4724,-1.28123 -3.0975,-1.28123 -0.6251,0 -1.902,0.76476 -2.7773,0.88974 -0.8751,0.12498 -1.8456,0.88809 -3.596,1.388 -1.7505,0.49992 -1.2593,0.47839 -2.6347,1.10329 -1.3753,0.6249 -1.6345,0.24996 -2.6348,0 -1.0002,-0.24996 -1.9905,-0.97665 -2.9908,-1.60154 -1.0003,-0.6249 -1.8869,-1.63713 -1.8869,-1.63713 0,0 -2.5073,-1.76128 -3.3826,-1.88626 -0.8752,-0.12498 -2.1157,0.88808 -2.9908,1.388 -0.8752,0.49992 -1.7594,0.1076 -2.6346,-0.14236 -0.8754,-0.24996 -2.4899,-1.119 -3.24,-1.7439 -0.7503,-0.6249 -3.6269,-2.36464 -5.1271,-2.98954 -1.5005,-0.6249 -3.1133,-0.39232 -3.7386,-0.14236 -0.6251,0.24996 -3.63,0.51481 -4.1301,0.88975 -0.5002,0.37493 -0.761,2.11551 -2.1363,2.74041 -1.3753,0.6249 -3.6109,3.37854 -4.4861,4.12841 -0.8753,0.74988 -2.7772,1.88626 -2.7772,1.88626 0,0 -3.1307,0.9783 -3.8809,1.10328 -0.7503,0.12498 -7.2402,2.90016 -8.8656,3.02514 -1.6254,0.12498 -3.7526,0.12498 -4.8778,0 -1.1253,-0.12498 -4.0033,-0.24913 -4.6287,-0.24913 -0.6251,0 -4.7327,0.35589 -5.483,0.35589 -0.7501,0 -2.3763,-0.10671 -5.1269,-0.10671 -2.7508,0 -3.0051,0.35424 -4.1302,0.85416 -1.1255,0.49992 -1.493,0.99403 -2.2432,1.7439 -0.7502,0.74988 -2.1312,1.52703 -3.6316,2.52687 -1.5003,0.99983 -1.8814,0.12415 -3.6317,0.24913 -1.7505,0.12498 -1.7603,-0.0174 -2.3856,-0.14236 -0.6251,-0.12498 -2.3498,-1.49477 -2.3498,-1.49477 0,0 -0.8877,0.63729 -1.6379,1.63713 -0.7502,0.99983 -2.9866,1.24315 -4.2369,1.99303 -1.2503,0.74988 -1.7578,0.10671 -3.1332,0.10671 -1.3754,0 -4.1302,-3.34544 -4.1302,-3.34544 0,0 -1.7428,-2.02695 -2.243,-2.52687 -0.5002,-0.49992 -4.5218,-2.98955 -4.5218,-2.98955 l -1.8514,-0.60502 -3.2757,-2.52688 c 0,0 -5.9973,-1.35076 -6.6224,-1.85066 -0.6252,-0.49992 -2.9908,-1.38801 -2.9908,-1.38801 0,0 -3.1482,0.99569 -4.0234,1.24565 -0.8751,0.24995 -2.8624,-0.35424 -3.9878,-0.85416 -1.1253,-0.49992 -1.9938,-2.52687 -1.9938,-2.52687 0,0 -2.8964,-0.99818 -4.5216,-0.49826 -1.6254,0.49992 -2.1007,1.63713 -2.1007,1.63713 l -4.3794,3.63016 c 0,0 -1.1161,0.37161 -2.7415,0.99651 -1.6254,0.6249 -2.2562,0.37246 -3.6318,0.74739 -1.3752,0.37494 -2.5237,-0.0165 -3.774,-0.39149 -1.2504,-0.37494 -1.863,-0.2483 -3.7385,-0.49826 -1.8755,-0.24996 -1.8853,0.14153 -2.3855,0.39149 -0.5002,0.24996 -1.3498,1.0114 -2.35,1.88626 -1.0004,0.87486 -1.1541,0.74738 -2.0294,0.74738 -0.8752,0 -2.4924,-2.02861 -2.4924,-2.02861 0,0 -0.8842,0.24829 -2.6346,0.49825 -1.7505,0.24996 -1.5981,1.03044 -2.8485,1.53036 -1.2502,0.49992 -2.1337,0.2483 -2.8838,0.49826 -0.7503,0.24996 -2.8841,2.59805 -2.8841,2.59805 0,0 -1.3853,3.51842 -2.3855,5.01816 -1.0001,1.49976 -1.1195,1.73891 -1.7446,3.23867 -0.6251,1.49975 -0.992,1.36482 -2.4923,2.98954 -1.5005,1.62473 -0.2658,1.27875 -0.641,2.02862 -0.375,0.74988 -1.8496,0.12498 -2.3498,0 -0.5001,-0.12498 -2.5263,-1.38717 -3.0263,-1.63713 -0.5004,-0.24996 -2.4925,-0.74738 -2.4925,-0.74738 l -1.7446,0.99651 -3.2401,1.7439 c 0,0 -1.6178,1.36896 -2.243,1.7439 -0.6251,0.37492 -2.7772,0.74738 -2.7772,0.74738 l -2.2431,0.24913 -2.1363,-0.10671 -2.4922,-0.88975 c 0,0 -2.1165,-0.9783 -2.7416,-1.10328 -0.6251,-0.12498 -0.9969,-1.49477 -0.9969,-1.49477 l -3.1332,-1.53036 -3.1333,-0.60503 c 0,0 -2.5063,-0.4966 -3.6316,-0.99651 -1.1252,-0.49992 -0.7477,-1.7439 -0.7477,-1.7439 l -3.3469,-1.388 c 0,0 -1.7609,-0.99485 -2.1363,-1.49477 -0.3749,-0.49998 -1.7445,-1.2457 -1.7445,-1.2457 l -2.528,-1.388 -2.4922,-1.24564 c 0,0 -3.8793,-1.38634 -4.3794,-1.88626 -0.5001,-0.49992 -2.258,-0.74656 -3.1333,-0.99652 -0.8751,-0.24995 -2.363,-0.60253 -3.7384,-1.35241 -1.3754,-0.74988 -1.4929,-0.8707 -2.2431,-1.24564 -0.7502,-0.37494 -2.8823,-0.12498 -3.3825,0 -0.5002,0.12498 -2.4922,-1.13887 -2.4922,-1.13887 0,0 -0.4944,-0.61908 -1.7448,-1.7439 -1.2502,-1.12481 -2.1347,-1.24398 -2.6346,-1.7439 -0.5002,-0.49992 -3.6318,-0.88974 -3.6318,-0.88974 0,0 -3.8776,-0.49743 -4.8778,-0.74739 -1.0002,-0.24996 -2.4882,-0.88891 -3.7384,-1.13887 -1.2504,-0.24996 -3.6317,-0.74739 -3.6317,-0.74739 0,0 -0.6367,0.26485 -1.8871,0.88975 -1.2503,0.62489 -1.1203,1.119 -1.4953,1.7439 -0.3752,0.62489 -0.621,1.01223 -1.2462,1.63713 -0.6252,0.62488 -1.3627,0.85082 -3.7384,1.85066 -2.3756,0.99984 -2.7773,0.64062 -2.7773,0.64062 0,0 -1.8474,0.62074 -3.0976,1.24564 -1.2503,0.6249 -1.6535,0.76394 -2.2787,1.13887 -0.6251,0.37494 -1.4746,0.24747 -2.3498,0.74739 -0.8753,0.49991 -2.2432,1.35241 -2.2432,1.35241 l -1.2817,1.63713 -1.8515,1.99303 c 0,0 -2.0261,1.49394 -3.0263,1.7439 -1.0003,0.24996 -0.8495,-0.10512 -2.35,-0.60503 -1.5003,-0.49992 -2.2579,-0.49742 -3.1331,-0.74738 -0.8753,-0.24996 -2.9908,-0.39149 -2.9908,-0.39149 0,0 -3.5025,0.5148 -4.8779,0.88974 -1.3752,0.37494 -1.7595,0.23092 -2.6347,0.3559 -0.8752,0.12497 -3.2401,-0.3559 -3.2401,-0.3559 0,0 -3.0065,-0.49742 -3.6316,-0.74738 -0.6252,-0.24996 -1.1394,-1.63713 -1.1394,-1.63713 0,0 -3.986,-1.61809 -4.4861,-1.99303 -0.5001,-0.37494 -2.6348,-0.74738 -2.6348,-0.74738 0,0 -3.1314,-1.9922 -3.6316,-2.24216 -0.5001,-0.24996 -3.1333,-1.77949 -3.1333,-1.77949 0,0 -2.2414,-2.86373 -2.7415,-3.23867 -0.5003,-0.37494 -3.8809,-2.74041 -3.8809,-2.74041 l -4.6286,-2.49129 c 0,0 -4.7511,0.60503 -5.3764,0.60503 -0.6251,0 -2.9908,0.88974 -2.9908,0.88974 l -5.9815,-1.63713 c 0,0 -2.7573,0.37411 -3.3824,0.24913 -0.6252,-0.12498 -2.153,0.88809 -2.5279,1.388 -0.3751,0.49992 -1.2445,1.22661 -1.7446,1.60154 -0.5001,0.37494 -2.7416,1.13888 -2.7416,1.13888 l -3.3825,-0.14236 -3.3823,-2.34893 -3.2401,-0.24913 c 0,0 -1.7421,-2.15027 -2.4923,-3.02513 -0.7503,-0.87485 -1.2619,-1.22494 -1.8871,-2.09979 -0.6252,-0.87486 -0.997,-1.63713 -0.997,-1.63713 l -2.8838,-2.13539 c 0,0 -2.4724,-1.10328 -3.0978,-1.10328 -0.6251,0 -1.0282,0.6017 -2.2786,1.60154 -1.2503,0.99983 -0.992,0.77799 -2.4922,2.27774 -1.5006,1.49976 -0.872,1.61726 -0.997,2.24216 -0.1249,0.6249 -2.2431,1.63713 -2.2431,1.63713 0,0 -2.1156,-0.63896 -2.9908,-1.13887 -0.8752,-0.49992 -2.6347,-0.64062 -2.6347,-0.64062 l -1.9939,1.24564 -1.7802,1.53036 c 0,0 -2.0999,1.09996 -2.35,2.0998 -0.2501,0.99983 -1.6378,1.13887 -1.6378,1.13887 l -3.1331,-0.14236 c 0,0 -1.2405,0.12498 -2.9908,0 -1.7506,-0.12498 -2.9892,-0.24913 -3.4893,-0.24913 -0.5002,0 -0.6382,0.38983 -1.3885,0.88975 -0.7503,0.49992 -1.4956,1.388 -1.4956,1.388 0,0 -0.9951,1.11817 -1.4952,1.99303 -0.5003,0.87486 -1.3672,0.9783 -2.4924,1.10328 -1.1252,0.12498 -2.257,-0.35423 -3.3825,-0.85415 -1.1252,-0.49992 -1.2584,-0.39066 -2.8839,-0.64062 -1.6254,-0.24996 -1.6377,0.49826 -1.6377,0.49826 l -1.7447,1.49477 c 0,0 -1.4928,2.25705 -2.2431,3.1319 -0.7502,0.87486 -1.3886,1.388 -1.3886,1.388 0,0 -0.9762,8.3e-4 -1.8515,-0.24913 -0.8752,-0.24996 -1.7802,0 -1.7802,0 0,0 -2.9725,-1.01307 -3.0975,-1.388 -0.125,-0.37494 -2.028,-1.51049 -2.528,-2.13539 -0.5001,-0.6249 -1.8514,-1.85067 -1.8514,-1.85067 0,0 -2.7564,-2.13372 -3.6318,-2.63364 -0.8752,-0.49992 -2.6147,-1.26219 -3.2399,-1.63713 -0.6253,-0.37494 -2.0295,-1.99303 -2.0295,-1.99303 l -3.24,-3.23867 c -0.6251,-0.62489 -2.2414,-1.63547 -2.7416,-2.13538 -0.5001,-0.49992 -2.1346,-1.12067 -2.6347,-1.24565 -0.5,-0.12498 -2.6347,-2.63364 -2.6347,-2.63364 0,0 -3.004,-2.09813 -4.3794,-2.59805 -1.3753,-0.49992 -1.9913,-1.90281 -2.7416,-2.27775 -0.7501,-0.37494 -2.9908,-1.10328 -2.9908,-1.10328 l -2.4923,-2.38452 -2.2787,-2.74041 -1.9939,0.24913 c 0,0 -1.1169,1.11651 -2.4923,2.49128 -1.3753,1.37478 -0.8702,1.26053 -1.4953,2.13539 -0.6252,0.87486 -1.1344,1.49062 -2.6348,2.74041 -1.5003,1.2498 -1.1203,1.49311 -1.4954,1.99303 -0.3752,0.49992 -1.3671,0.64062 -2.4924,0.64062 -1.1253,0 -2.9907,-0.39149 -2.9907,-0.39149 0,0 -3.3981,-1.10245 -4.0233,-1.35241 -0.6253,-0.24996 -1.7422,-0.88892 -2.4922,-1.13888 -0.7504,-0.24995 -1.4956,-1.74389 -1.4956,-1.74389 l -1.9938,-0.49826 c 0,0 -2.1345,1.86722 -2.6347,2.24215 -0.5002,0.37494 -2.1363,2.63365 -2.1363,2.63365 0,0 -1.2611,1.35158 -2.1362,1.60154 -0.8753,0.24996 -2.1157,0.64061 -2.9908,0.64061 -0.8753,0 -4.7355,1.7439 -4.7355,1.7439 l -4.0233,1.388 -2.7415,1.35242 c 0,0 -1.4889,0.74904 -3.4893,0.24912 -2.0007,-0.49991 -2.1297,-0.72585 -4.1301,-1.85066 -2.0007,-1.12482 -1.8871,-1.49477 -1.8871,-1.49477 0,0 -1.4922,-0.14236 -2.4922,-0.14236 -1.0004,0 -1.2612,0.26567 -2.1363,0.64061 -0.8752,0.37494 -1.1012,1.47407 -1.8515,2.34893 -0.7503,0.87485 -3.0264,1.88626 -3.0264,1.88626 l -0.6053,1.7439 c 0,0 -2.5262,8.3e-4 -3.0264,-0.24913 -0.5,-0.24996 -1.4954,-1.35241 -1.4954,-1.35241 0,0 -1.6188,-1.75879 -1.9938,-2.63365 -0.3751,-0.87485 -0.8539,-1.61726 -1.1037,-2.24215 -0.2502,-0.6249 -1.5112,-1.13805 -2.1363,-1.38801 -0.6252,-0.24995 -1.8838,0.12498 -2.884,0 -1.0003,-0.12498 -1.0119,0.7449 -1.8871,1.49477 -0.8752,0.74988 -0.3543,1.99137 -0.8545,2.49129 -0.5002,0.49992 -0.4952,1.40289 -1.4953,2.27775 -1.0003,0.87485 -2.7773,3.59456 -2.7773,3.59456 0,0 -2.243,2.88112 -2.243,3.38103 0,0.49992 -0.4952,1.76128 -1.4955,1.88626 -1.0001,0.12498 -1.887,-0.14236 -1.887,-0.14236 l -1.8513,-1.35241 -1.1395,-0.99651 c 0,0 -2.2588,-1.5287 -2.8839,-2.02862 -0.6251,-0.49992 -3.3468,-1.49477 -3.3468,-1.49477 l -2.2788,0.39148 -1.8515,2.13539 -1.7445,0.24913 -2.3856,-1.77949 -0.6408,-1.35241 -2.6348,-1.88626 c 0,0 -1.7221,-1.01306 -3.0976,-1.388 -1.3753,-0.37494 -2.3855,-1.60154 -2.3855,-1.60154 l -2.9908,-0.14236 c 0,0 -1.7603,-8.3e-4 -2.3854,0.24913 -0.6253,0.24996 -1.6353,0.37245 -2.3856,0.74738 -0.7502,0.37494 -1.2462,1.53037 -1.2462,1.53037 0,0 -2.1155,1.12149 -2.9908,0.99651 -0.8751,-0.12498 -1.7446,-0.39149 -1.7446,-0.39149 l -2.6347,-1.63713 c 0,0 -2.8641,-1.22743 -3.4892,-1.35241 l -3.1333,-0.64062 c 0,0 -2.1347,-0.49742 -2.6346,-0.74738 -0.5002,-0.24996 -2.4925,-1.60154 -2.4925,-1.60154 l -1.8869,-1.53036 -3.1332,-1.24564 -3.8453,-2.0998 -1.3886,-1.28123 -2.1363,-1.7439 c 0,0 0.2493,-1.84818 0.2493,-2.59806 0,-0.74987 -0.8545,-1.63713 -0.8545,-1.63713 0,0 -1.8854,-0.74655 -2.3856,-0.99651 -0.5002,-0.24996 -1.6179,-0.87153 -2.2432,-0.99651 -0.625,-0.12498 -2.777,-0.74739 -2.777,-0.74739 0,0 -1.1012,-1.36896 -1.8515,-1.7439 -0.7502,-0.37494 -2.4924,-1.28123 -2.4924,-1.28123 l -3.0263,-0.85415 c 0,0 -1.9905,-0.24913 -2.9908,-0.24913 z"
     id="rect5222"
     inkscape:connector-curvature="0"
     sodipodi:nodetypes="sccccccccccscccscccscccccccscsccsscccssccccscsscscsccsccccsscccccssssscssccssccsccscccccsscscccscccccscsssscsssscsccccccccccccsccccccscccccscscscccsscccsccsccccccccsssssccsssssscssssscscsscscssccsccccccccccccccccccccscccccccccccccccccccccscccccccccccccscccccsccccccccccccccccccccccccccccccccccccccccccccccccccccccccccccsccccccccccccccccccccccccccccccccccccccccccccccccccccccccccccccccccccccccccsscscccsscccccscsccccccsscsscccccsccccccscccccscssccccssscsccccccsccccscccsccccccccccscccsscsscsscscccssscssccscccsccscccccccsscccscscccscccsccscsccscsscsscssscccsccssscscccsccccsccsccsscscsscccsssccccccccccsccccccccccccscscsccsscccscccssccccssccccsccccccccsccsccccccccccsccscscccsccsssccsccccscscsccsccscccsccccccsccscccccsccsccccccscsccccscssccccsscccscccccccccccccccccccccccccscsccsccs"
     inkscape:export-xdpi="90"
     inkscape:export-ydpi="90"
     inkscape:export-filename="C:\Users\chuchmaczm\Desktop\rect5222.png" />
</svg>
