<?xml version="1.0" encoding="UTF-8" standalone="no"?>
<!-- Created with Inkscape (http://www.inkscape.org/) -->

<svg
   xmlns:dc="http://purl.org/dc/elements/1.1/"
   xmlns:cc="http://creativecommons.org/ns#"
   xmlns:rdf="http://www.w3.org/1999/02/22-rdf-syntax-ns#"
   xmlns:svg="http://www.w3.org/2000/svg"
   xmlns="http://www.w3.org/2000/svg"
   xmlns:sodipodi="http://sodipodi.sourceforge.net/DTD/sodipodi-0.dtd"
   xmlns:inkscape="http://www.inkscape.org/namespaces/inkscape"
   id="svg2985"
   version="1.1"
   inkscape:version="0.48.5 r10040"
   width="991.99994"
   height="212.5"
   sodipodi:docname="tatry_ink992.svg"
   inkscape:export-filename="C:\Users\chuchmaczm\Desktop\bitmap3.png"
   inkscape:export-xdpi="90"
   inkscape:export-ydpi="90">
  <metadata
     id="metadata2991">
    <rdf:RDF>
      <cc:Work
         rdf:about="">
        <dc:format>image/svg+xml</dc:format>
        <dc:type
           rdf:resource="http://purl.org/dc/dcmitype/StillImage" />
        <dc:title></dc:title>
      </cc:Work>
    </rdf:RDF>
  </metadata>
  <defs
     id="defs2989">
    <inkscape:path-effect
       effect="spiro"
       id="path-effect3802"
       is_visible="true" />
    <inkscape:path-effect
       effect="spiro"
       id="path-effect3798"
       is_visible="true" />
  </defs>
  <sodipodi:namedview
     pagecolor="#ffffff"
     bordercolor="#666666"
     borderopacity="1"
     objecttolerance="10"
     gridtolerance="10"
     guidetolerance="10"
     inkscape:pageopacity="0"
     inkscape:pageshadow="2"
     inkscape:window-width="2194"
     inkscape:window-height="1171"
     id="namedview2987"
     showgrid="false"
     inkscape:zoom="0.56953015"
     inkscape:cx="517.50032"
     inkscape:cy="352.9407"
     inkscape:window-x="-8"
     inkscape:window-y="-8"
     inkscape:window-maximized="1"
     inkscape:current-layer="svg2985"
     fit-margin-top="0"
     fit-margin-left="0"
     fit-margin-right="0"
     fit-margin-bottom="0" />
  <path
     style="fill:#303c46;fill-opacity:1;stroke:none"
     d="m 634.5,0 c -1.0003,0 -1.46875,1.25 -1.46875,1.25 l -1.40625,1.25 -3.25,1.875 -1.71875,-0.25 -2.40625,0.5 c 0,0 -3.8747,2.25002 -4.375,2.375 -0.5001,0.12498 -2.2496,3.7501 -3,4.375 -0.7501,0.62489 -9.5,9.875 -9.5,9.875 0,0 -2.8747,4.25017 -4.625,5.25 -1.7505,0.99984 -1.75,-1.25 -1.75,-1.25 0,0 -1.6249,-0.875 -2.125,-0.875 -0.5001,0 -2,0.75004 -2.75,1 -0.7503,0.24996 -2,1.46885 -2.5,2.09375 -0.5001,0.62489 -2.8747,3.03134 -3.625,3.53125 -0.7502,0.49991 -2.1247,0.62502 -3.625,0.75 -1.5005,0.12498 -1.8748,-0.37498 -2.875,-0.25 -1.0001,0.12498 -2.5,1.25 -2.5,1.25 0,0 -2.1249,0.87512 -2.875,1.5 -0.7503,0.6249 -3.4998,0.87504 -4,1.125 -0.5002,0.24996 -4.24965,1.62514 -5.375,2.5 -1.1253,0.87486 -4.03125,0.84375 -4.03125,0.84375 L 557.75,38.875 l -4.28125,0.5 -3.34375,-1 -2.125,-1.5 c 0,0 -2.7499,-1.25006 -3.25,-1.625 -0.5002,-0.37494 -2.78105,7.5e-4 -3.53125,0.5 -0.7502,0.49992 -1.84375,2.96875 -1.84375,2.96875 0,0 -5.1248,2.15623 -5.875,2.03125 -0.7502,-0.12498 -6.15625,0.125 -6.15625,0.125 L 521.375,41.25 c 0,0 -4.15605,0.12502 -5.15625,0.25 -1.0003,0.12498 -2.46845,-0.125 -3.71875,-0.125 -1.2503,0 -2.15625,-1.125 -2.15625,-1.125 L 506.875,37.875 502.5,36.5 c 0,0 -1.78105,0.5 -2.53125,0.5 -0.7502,0 -3.6248,-1 -4.625,-1 C 494.34345,36 492,35.5 492,35.5 l -2.90625,0 -2,-1.25 -1.625,-0.75 c 0,0 -1.8749,-0.15625 -2.5,-0.15625 -0.6252,0 -1.875,-1.09375 -1.875,-1.09375 0,0 -1.6249,-1.00004 -2.125,-1.25 -0.5002,-0.24995 -2.1248,-1.50007 -2.875,-1.875 -0.7502,-0.37494 -1.96875,-1.40625 -1.96875,-1.40625 0,0 -3.40595,-3.34378 -4.65625,-3.46875 -1.2503,-0.12498 -2.25,-0.90625 -2.25,-0.90625 0,0 -2.3749,0.12502 -2.875,0.25 -0.5002,0.12498 -2.5,0.28125 -2.5,0.28125 l -2.25,0.5 c 0,0 -3.6249,-0.5 -4.125,-0.5 -0.5001,0 -2,-2.125 -2,-2.125 l -2.5,-2.25 -1.375,0.25 -2.90625,0.125 c 0,0 -2.46865,-1.50004 -3.09375,-1.75 -0.6252,-0.24995 -1.3748,-0.5 -1.875,-0.5 -0.5001,0 -1.5,1.125 -1.5,1.125 l -2,2.5 -2.53125,2 -2.09375,2.625 -1.875,1.84375 c 0,0 -1.15615,1.53133 -1.65625,2.03125 -0.5001,0.49992 -2.46855,1.25005 -3.46875,1.5 -1.0003,0.24996 -1.65595,-0.5 -2.90625,-0.5 -1.2503,0 -3.1248,-1.12504 -4.125,-1.375 -1.0003,-0.24995 -1.9998,-0.12496 -3,0.125 -1.0003,0.24996 -3.46875,-1.125 -3.46875,-1.125 0,0 -1.9997,-0.87504 -3.375,-1.125 -1.3754,-0.24996 -1.8748,-1.00002 -2.5,-1.125 -0.6251,-0.12497 -1.65625,0.5 -1.65625,0.5 l -1.375,1.75 c 0,0 -1.8746,0.34375 -3.25,0.34375 -1.3753,0 -2.3748,-1.12503 -3.375,-1.25 -1.0003,-0.12498 -2.09375,-0.09375 -2.09375,-0.09375 L 390.6875,26.75 c 0,0 -1.6248,-0.375 -2.5,-0.375 -0.8753,0 -2.625,0.125 -2.625,0.125 l -2,0.96875 c 0,0 -1.1249,1.65631 -1.625,2.03125 -0.5002,0.37494 -1.75,1.75 -1.75,1.75 l -3.25,1.25 -1.375,1.09375 -1.84375,2.03125 -2.28125,2.5 c 0,0 -1.49996,1.37509 -1.875,1.875 -0.3751,0.49992 -2.24985,1.37504 -2.875,1.625 -0.62516,0.24996 -2.875,-0.25 -2.875,-0.25 0,0 -2.87483,0.24998 -3.5,0.125 -0.62516,-0.12498 -2.875,-0.125 -2.875,-0.125 l -2.25,-0.75 c 0,0 -1.37478,-0.40638 -2.25,-1.15625 -0.87522,-0.74988 -1.87484,-0.71881 -2.5,-1.09375 -0.62516,-0.37494 -1.75,-1.25 -1.75,-1.25 l -2.5,-1.5 -1.5,-1.53125 -2.375,-1.5 -2.65625,-2.21875 c 0,0 -3.09368,-1.90633 -3.34375,-2.40625 -0.25006,-0.49991 -2.28125,-1.34375 -2.28125,-1.34375 0,0 -1.71856,-0.50005 -2.46875,-0.75 -0.75018,-0.24996 -1.90605,-0.75004 -2.65625,-1 -0.75017,-0.24996 -1.96861,-0.62506 -2.46875,-1 -0.50012,-0.37494 -3.28103,0.37498 -4.15625,0.25 C 321.40604,24.00002 320.4375,25 320.4375,25 c 0,0 -2.62488,0.12498 -3.125,0 -0.50013,-0.12498 -1.99978,0.50004 -2.875,0.75 -0.87523,0.24996 -2.49975,0.62504 -3.5,0.875 -1.00025,0.24996 -2.40585,0.50017 -4.03125,1.5 -1.62542,0.99984 -2.75,0.5 -2.75,0.5 l -1.96875,2 C 301.68738,31.1249 300.03125,32 300.03125,32 l -1.71875,1.59375 -3.15625,2.78125 -2.09375,2.25 -1.875,2.125 -2.40625,0.5 -1.75,0.125 -3.125,-1.375 -2.75,-1.53125 -0.375,0.65625 -0.84375,1.625 -1.5,0.375 c 0,0 -0.90607,-0.25006 -1.65625,-0.625 -0.7502,-0.37494 -1.25,-1.375 -1.25,-1.375 l -1.71875,-1.625 -2.40625,-1.25 -0.84375,0.875 -2.03125,1.75 -1.5,-1.625 c 0,0 -0.84368,-1.50008 -1.09375,-2 -0.25007,-0.49992 -1.15625,-2 -1.15625,-2 l -0.25,-1.25 -1.21875,-1.5 -2.65625,-3.03125 -1.625,-0.71875 c 0,0 -2.59362,-0.50005 -3.09375,-0.75 -0.50012,-0.24996 -2.53125,-0.375 -2.53125,-0.375 0,0 -1.74988,0.75006 -2.25,1.125 -0.50013,0.37494 -2.875,1.21875 -2.875,1.21875 0,0 -1.62484,2.15635 -2.25,2.78125 -0.62515,0.62488 -3.375,1.25 -3.375,1.25 l -2.59375,1.09375 -2.15625,-2.21875 c 0,0 -1.37485,-0.24987 -2,0.5 -0.62516,0.74988 -2.37477,1.84381 -3.25,2.21875 -0.87521,0.37493 -2.625,2.15625 -2.625,2.15625 l -2.75,-0.625 -1.75,-0.78125 c 0,0 -3.28115,-2.46883 -3.65625,-2.96875 -0.37508,-0.49991 -1.59375,-1 -1.59375,-1 l -1.75,-1.90625 c 0,0 -1.78113,-1.21885 -2.28125,-1.84375 -0.50014,-0.6249 -1.96875,-1.375 -1.96875,-1.375 l -2.5,-1.75 -2.375,-2.625 -2.25,-2.375 -2.40625,-1.75 -3.96875,-2 -3,-2.25 -1.375,-1.625 c 0,0 -2.99988,-3e-5 -3.5,-0.125 -0.50012,-0.12498 -2.12488,1.50004 -2.625,1.75 -0.50012,0.24996 -3.24984,0.0937 -3.875,-0.15625 -0.62516,-0.24996 -2.15606,0.0312 -2.90625,-0.21875 -0.75018,-0.24996 -1.09362,-0.87504 -1.59375,-1.125 -0.50013,-0.24996 -1.75,-1.75 -1.75,-1.75 l -3.625,-0.625 c 0,0 -2.49977,-0.59379 -3.375,-0.84375 -0.87522,-0.24996 -2.12478,0.09375 -3,0.09375 -0.87522,0 -1.99985,0.37505 -2.625,0.625 -0.62516,0.24996 -2.49988,1.25007 -3,1.625 -0.50013,0.37494 -2.87487,1.25004 -3.375,1.5 -0.50013,0.24996 -3.15609,1.50007 -3.78125,1.875 -0.62514,0.37494 -1.59375,1.25 -1.59375,1.25 0,0 -2.40611,0.62506 -2.90625,1 -0.50012,0.37494 -2.46843,1.21891 -3.71875,2.21875 -1.25031,0.99983 -2.65603,0.65629 -3.53125,0.90625 -0.87522,0.24996 -2.37484,0.50002 -3,0.625 -0.62515,0.12498 -1.62455,0.50012 -3.375,1.25 -1.75043,0.74987 -2.875,0.875 -2.875,0.875 0,0 -2.09363,1.09382 -2.59375,1.46875 C 133.28112,23.46869 131.375,24 131.375,24 c 0,0 -1.74977,0.62508 -2.625,1.125 -0.87522,0.49992 -2.34363,0.37502 -2.84375,0.5 -0.50013,0.12498 -3.875,1.25 -3.875,1.25 0,0 -3.15611,-0.125 -3.65625,-0.125 -0.50011,0 -1.875,-1.75 -1.875,-1.75 0,0 -1.37481,-0.87491 -2.125,-0.375 -0.75018,0.49992 -1.99982,0.25004 -2.75,0.5 -0.7502,0.24996 -4.5625,1.8125 -4.5625,1.8125 l -4.78125,2.46875 c 0,0 -3.02214,1.94926 -3.90625,2.65625 -0.88411,0.70699 -1.90625,2.28125 -1.90625,2.28125 l -5.84375,3.5625 -3.03125,-1.9375 -4.25,-2.3125 -4.21875,-3 -2.28125,-2.125 -2.15625,-2.8125 -4.21875,-2.15625 -3.9375,-1.75 -3.5,-0.34375 L 58.96875,20.9375 55.4375,18.625 51,15.8125 47.28125,13.5 43.75,11.5625 l -4.40625,0 -2.65625,0.375 -3.375,2.96875 -3.375,2.8125 -3.15625,2.6875 c 0,0 -3.54271,1.59375 -4.25,1.59375 C 21.82397,22 19.5,24.625 19.5,24.625 l -2.96875,2.3125 -2.65625,0 L 11.21875,25.53125 8.40625,25 6.4375,26.9375 3.96875,28.34375 2.5625,30.46875 0,32.0625 0,212.5 l 991.99995,0 0,-170.5 c -0.4778,0.0927 -0.9307,0.162967 -1.25,0.25 -1.375,0.37494 -1.781,0.25002 -2.6562,0.375 -0.8752,0.12497 -3.2188,-0.375 -3.2188,-0.375 0,0 -3.0311,-0.50004 -3.6562,-0.75 -0.6252,-0.24996 -1.125,-1.625 -1.125,-1.625 0,0 -3.9999,-1.62506 -4.5,-2 -0.5001,-0.37494 -2.625,-0.75 -2.625,-0.75 0,0 -3.1248,-2.00004 -3.625,-2.25 -0.5001,-0.24996 -3.125,-1.78125 -3.125,-1.78125 0,0 -2.2499,-2.84381 -2.75,-3.21875 -0.5003,-0.37494 -3.875,-2.75 -3.875,-2.75 l -4.6562,-2.5 c 0,0 -4.7498,0.625 -5.375,0.625 -0.6251,0 -2.9688,0.875 -2.9688,0.875 l -6,-1.625 c 0,0 -2.7499,0.37498 -3.375,0.25 -0.6252,-0.12498 -2.1564,0.87509 -2.5312,1.375 -0.3751,0.49992 -1.25,1.21882 -1.75,1.59375 -0.5001,0.37494 -2.7188,1.15625 -2.7188,1.15625 l -3.4062,-0.15625 -3.375,-2.34375 -3.25,-0.25 c 0,0 -1.7186,-2.15639 -2.4688,-3.03125 -0.7503,-0.87485 -1.2812,-1.2189 -1.9062,-2.09375 -0.6252,-0.87486 -1,-1.625 -1,-1.625 l -2.875,-2.15625 c 0,0 -2.4684,-1.09375 -3.0938,-1.09375 -0.6251,0 -1.0309,0.59391 -2.2812,1.59375 -1.2503,0.99983 -1,0.7815 -2.5,2.28125 -1.5008,1.49976 -0.875,1.6251 -1,2.25 -0.125,0.6249 -2.2188,1.625 -2.2188,1.625 0,0 -2.1248,-0.62509 -3,-1.125 -0.8752,-0.49992 -2.625,-0.625 -2.625,-0.625 l -2,1.21875 -1.7812,1.53125 c 0,0 -2.0937,1.12516 -2.3438,2.125 -0.2501,0.99983 -1.6562,1.125 -1.6562,1.125 l -3.125,-0.15625 c 0,0 -1.2499,0.12498 -3,0 -1.7508,-0.12498 -2.9687,-0.25 -3.4688,-0.25 -0.5002,0 -0.65605,0.40633 -1.40625,0.90625 -0.7503,0.49992 -1.5,1.375 -1.5,1.375 0,0 -0.96865,1.12514 -1.46875,2 -0.5003,0.87486 -1.3748,0.96877 -2.5,1.09375 -1.1252,0.12498 -2.2495,-0.34383 -3.375,-0.84375 -1.1252,-0.49992 -1.28075,-0.37504 -2.90625,-0.625 -1.6254,-0.24996 -1.625,0.5 -1.625,0.5 l -1.75,1.46875 c 0,0 -1.4998,2.2814 -2.25,3.15625 -0.7502,0.87486 -1.375,1.375 -1.375,1.375 0,0 -0.96845,-4e-5 -1.84375,-0.25 -0.8752,-0.24996 -1.78125,0 -1.78125,0 0,0 -3,-1.00007 -3.125,-1.375 -0.125,-0.37494 -2,-1.53135 -2.5,-2.15625 -0.5001,-0.6249 -1.875,-1.84375 -1.875,-1.84375 0,0 -2.7496,-2.12508 -3.625,-2.625 -0.8752,-0.49992 -2.6249,-1.28131 -3.25,-1.65625 C 839.0622,27.84381 837.65625,26.25 837.65625,26.25 L 834.4375,23 c -0.6251,-0.62489 -2.2499,-1.62509 -2.75,-2.125 -0.5001,-0.49992 -2.125,-1.12502 -2.625,-1.25 -0.5,-0.12498 -2.65625,-2.625 -2.65625,-2.625 0,0 -2.9996,-2.12508 -4.375,-2.625 -1.3753,-0.49992 -1.96845,-1.87506 -2.71875,-2.25 -0.7501,-0.37494 -3,-1.125 -3,-1.125 l -2.5,-2.375 -2.28125,-2.75 -2,0.25 c 0,0 -1.09335,1.12523 -2.46875,2.5 -1.3753,1.37478 -0.875,1.25014 -1.5,2.125 -0.6252,0.87486 -1.15585,1.50021 -2.65625,2.75 -1.5003,1.2498 -1.09375,1.50008 -1.46875,2 -0.3752,0.49992 -1.3747,0.625 -2.5,0.625 -1.1253,0 -3,-0.375 -3,-0.375 0,0 -3.40605,-1.12504 -4.03125,-1.375 -0.6253,-0.24996 -1.71875,-0.87504 -2.46875,-1.125 -0.7504,-0.24995 -1.5,-1.75 -1.5,-1.75 l -2,-0.5 c 0,0 -2.1248,1.87507 -2.625,2.25 -0.5002,0.37494 -2.15625,2.625 -2.15625,2.625 0,0 -1.2499,1.34379 -2.125,1.59375 -0.8753,0.24996 -2.1249,0.65625 -3,0.65625 -0.8753,0 -4.71875,1.75 -4.71875,1.75 l -4.03125,1.375 -2.75,1.34375 c 0,0 -1.46845,0.74992 -3.46875,0.25 -2.0008,-0.49991 -2.15585,-0.71894 -4.15625,-1.84375 -2.0007,-1.12482 -1.875,-1.5 -1.875,-1.5 0,0 -1.5,-0.125 -2.5,-0.125 -1.0004,0 -1.2499,0.25006 -2.125,0.625 -0.8752,0.37494 -1.09355,1.46889 -1.84375,2.34375 -0.7503,0.87485 -3.03125,1.90625 -3.03125,1.90625 l -0.625,1.75 c 0,0 -2.4998,-4e-5 -3,-0.25 -0.5,-0.24996 -1.5,-1.375 -1.5,-1.375 0,0 -1.625,-1.75014 -2,-2.625 -0.3751,-0.87485 -0.84405,-1.62511 -1.09375,-2.25 -0.2502,-0.6249 -1.53115,-1.12504 -2.15625,-1.375 -0.6252,-0.24995 -1.8748,0.12498 -2.875,0 -1.0003,-0.12498 -0.9998,0.75013 -1.875,1.5 -0.8752,0.74988 -0.3748,2.00008 -0.875,2.5 -0.5002,0.49992 -0.4999,1.37514 -1.5,2.25 -1.0003,0.87485 -2.75,3.59375 -2.75,3.59375 0,0 -2.25,2.90634 -2.25,3.40625 0,0.49992 -0.4997,1.75002 -1.5,1.875 -1.0001,0.12498 -1.875,-0.15625 -1.875,-0.15625 l -1.875,-1.34375 -1.125,-1 c 0,0 -2.2499,-1.53133 -2.875,-2.03125 -0.6251,-0.49992 -3.375,-1.46875 -3.375,-1.46875 l -2.25,0.375 -1.875,2.125 -1.75,0.25 -2.375,-1.78125 -0.625,-1.34375 L 698.875,25 c 0,0 -1.71825,-1.03131 -3.09375,-1.40625 C 694.40595,23.21881 693.40625,22 693.40625,22 l -3,-0.125 c 0,0 -1.7499,4e-5 -2.375,0.25 -0.6253,0.24996 -1.65585,0.34382 -2.40625,0.71875 -0.7501,0.37494 -1.21875,1.53125 -1.21875,1.53125 0,0 -2.1247,1.12498 -3,1 -0.8751,-0.12498 -1.75,-0.375 -1.75,-0.375 l -2.625,-1.65625 c 0,0 -2.8749,-1.21877 -3.5,-1.34375 l -3.125,-0.625 c 0,0 -2.1251,-0.50004 -2.625,-0.75 -0.5002,-0.24996 -2.5,-1.625 -2.5,-1.625 L 663.375,17.46875 660.25,16.25 656.40625,14.125 655.03125,12.84375 652.875,11.125 c 0,0 0.25,-1.87512 0.25,-2.625 0,-0.74987 -0.84375,-1.625 -0.84375,-1.625 0,0 -1.8748,-0.75004 -2.375,-1 -0.5002,-0.24996 -1.6247,-0.87502 -2.25,-1 -0.625,-0.12498 -2.78125,-0.75 -2.78125,-0.75 0,0 -1.09345,-1.34381 -1.84375,-1.71875 -0.7502,-0.37494 -2.5,-1.28125 -2.5,-1.28125 L 637.5,0.25 c 0,0 -1.9997,-0.25 -3,-0.25 z"
     id="rect5222"
     inkscape:export-filename="C:\Users\chuchmaczm\Desktop\czcionka\stopka\rect992.png"
     inkscape:export-xdpi="90"
     inkscape:export-ydpi="90"
     inkscape:connector-curvature="0" />
</svg>
